<?xml version="1.0" encoding="utf-8"?>
<svg xmlns="http://www.w3.org/2000/svg" width="590.1000mm" height="462.0000mm" viewBox="1467.8000 -6.0000 590.1000 462.0000">
<g>
	<path d="M1467.8000,-0.0500 L1467.8000,225.0000 L1467.8000,450.0500 L1467.8000,456.0000 L1493.5522,456.0000 L1493.5522,450.0500 L1493.5522,450.0500 L1519.1043,450.0500 L1519.1043,456.0000 L1519.1043,456.0000 L1544.8565,456.0000 L1544.8565,450.0500 L1544.8565,450.0500 L1570.4087,450.0500 L1570.4087,456.0000 L1570.4087,456.0000 L1596.1609,456.0000 L1596.1609,450.0500 L1596.1609,450.0500 L1621.7130,450.0500 L1621.7130,456.0000 L1621.7130,456.0000 L1647.4652,456.0000 L1647.4652,450.0500 L1647.4652,450.0500 L1673.0174,450.0500 L1673.0174,456.0000 L1673.0174,456.0000 L1698.7696,456.0000 L1698.7696,450.0500 L1698.7696,450.0500 L1724.3217,450.0500 L1724.3217,456.0000 L1724.3217,456.0000 L1750.0739,456.0000 L1750.0739,450.0500 L1750.0739,450.0500 L1775.6261,450.0500 L1775.6261,456.0000 L1775.6261,456.0000 L1801.3783,456.0000 L1801.3783,450.0500 L1801.3783,450.0500 L1826.9304,450.0500 L1826.9304,456.0000 L1826.9304,456.0000 L1852.6826,456.0000 L1852.6826,450.0500 L1852.6826,450.0500 L1878.2348,450.0500 L1878.2348,456.0000 L1878.2348,456.0000 L1903.9870,456.0000 L1903.9870,450.0500 L1903.9870,450.0500 L1929.5391,450.0500 L1929.5391,456.0000 L1929.5391,456.0000 L1955.2913,456.0000 L1955.2913,450.0500 L1955.2913,450.0500 L1980.8435,450.0500 L1980.8435,456.0000 L1980.8435,456.0000 L2006.5957,456.0000 L2006.5957,450.0500 L2006.5957,450.0500 L2032.1478,450.0500 L2032.1478,456.0000 L2032.1478,456.0000 L2057.9000,456.0000 L2057.9000,450.0500 L2057.9000,225.0000 L2057.9000,-0.0500 L2057.9000,-6.0000 L2032.1478,-6.0000 L2032.1478,-0.0500 L2032.1478,-0.0500 L2006.5957,-0.0500 L2006.5957,-6.0000 L2006.5957,-6.0000 L1980.8435,-6.0000 L1980.8435,-0.0500 L1980.8435,-0.0500 L1955.2913,-0.0500 L1955.2913,-6.0000 L1955.2913,-6.0000 L1929.5391,-6.0000 L1929.5391,-0.0500 L1929.5391,-0.0500 L1903.9870,-0.0500 L1903.9870,-6.0000 L1903.9870,-6.0000 L1878.2348,-6.0000 L1878.2348,-0.0500 L1878.2348,-0.0500 L1852.6826,-0.0500 L1852.6826,-6.0000 L1852.6826,-6.0000 L1826.9304,-6.0000 L1826.9304,-0.0500 L1826.9304,-0.0500 L1801.3783,-0.0500 L1801.3783,-6.0000 L1801.3783,-6.0000 L1775.6261,-6.0000 L1775.6261,-0.0500 L1775.6261,-0.0500 L1750.0739,-0.0500 L1750.0739,-6.0000 L1750.0739,-6.0000 L1724.3217,-6.0000 L1724.3217,-0.0500 L1724.3217,-0.0500 L1698.7696,-0.0500 L1698.7696,-6.0000 L1698.7696,-6.0000 L1673.0174,-6.0000 L1673.0174,-0.0500 L1673.0174,-0.0500 L1647.4652,-0.0500 L1647.4652,-6.0000 L1647.4652,-6.0000 L1621.7130,-6.0000 L1621.7130,-0.0500 L1621.7130,-0.0500 L1596.1609,-0.0500 L1596.1609,-6.0000 L1596.1609,-6.0000 L1570.4087,-6.0000 L1570.4087,-0.0500 L1570.4087,-0.0500 L1544.8565,-0.0500 L1544.8565,-6.0000 L1544.8565,-6.0000 L1519.1043,-6.0000 L1519.1043,-0.0500 L1519.1043,-0.0500 L1493.5522,-0.0500 L1493.5522,-6.0000 L1493.5522,-6.0000 L1467.8000,-6.0000 L1467.8000,-0.0500"></path>
	<path d="M1487.8000,26.5206 L1481.9500,26.5206 L1481.9500,52.8912 L1487.8000,52.8912 L1487.8000,26.5206"></path>
	<path d="M1487.8000,79.4618 L1481.9500,79.4618 L1481.9500,105.8324 L1487.8000,105.8324 L1487.8000,79.4618"></path>
	<path d="M1487.8000,132.4029 L1481.9500,132.4029 L1481.9500,158.7735 L1487.8000,158.7735 L1487.8000,132.4029"></path>
	<path d="M1487.8000,185.3441 L1481.9500,185.3441 L1481.9500,211.7147 L1487.8000,211.7147 L1487.8000,185.3441"></path>
	<path d="M1487.8000,238.2853 L1481.9500,238.2853 L1481.9500,264.6559 L1487.8000,264.6559 L1487.8000,238.2853"></path>
	<path d="M1487.8000,291.2265 L1481.9500,291.2265 L1481.9500,317.5971 L1487.8000,317.5971 L1487.8000,291.2265"></path>
	<path d="M1487.8000,344.1676 L1481.9500,344.1676 L1481.9500,370.5382 L1487.8000,370.5382 L1487.8000,344.1676"></path>
	<path d="M1487.8000,397.1088 L1481.9500,397.1088 L1481.9500,423.4794 L1487.8000,423.4794 L1487.8000,397.1088"></path>
	<path d="M2007.8000,26.5206 L2001.9500,26.5206 L2001.9500,52.8912 L2007.8000,52.8912 L2007.8000,26.5206"></path>
	<path d="M2007.8000,79.4618 L2001.9500,79.4618 L2001.9500,105.8324 L2007.8000,105.8324 L2007.8000,79.4618"></path>
	<path d="M2007.8000,132.4029 L2001.9500,132.4029 L2001.9500,158.7735 L2007.8000,158.7735 L2007.8000,132.4029"></path>
	<path d="M2007.8000,185.3441 L2001.9500,185.3441 L2001.9500,211.7147 L2007.8000,211.7147 L2007.8000,185.3441"></path>
	<path d="M2007.8000,238.2853 L2001.9500,238.2853 L2001.9500,264.6559 L2007.8000,264.6559 L2007.8000,238.2853"></path>
	<path d="M2007.8000,291.2265 L2001.9500,291.2265 L2001.9500,317.5971 L2007.8000,317.5971 L2007.8000,291.2265"></path>
	<path d="M2007.8000,344.1676 L2001.9500,344.1676 L2001.9500,370.5382 L2007.8000,370.5382 L2007.8000,344.1676"></path>
	<path d="M2007.8000,397.1088 L2001.9500,397.1088 L2001.9500,423.4794 L2007.8000,423.4794 L2007.8000,397.1088"></path>
	<path d="M1509.7000,149.9500 L1509.5235,149.9516 L1509.3471,149.9562 L1509.1708,149.9640 L1508.9946,149.9749 L1508.8187,149.9889 L1508.6430,150.0060 L1508.4677,150.0262 L1508.2927,150.0495 L1508.1182,150.0759 L1507.9442,150.1053 L1507.7707,150.1379 L1507.5979,150.1734 L1507.4257,150.2121 L1507.2542,150.2537 L1507.0834,150.2984 L1506.9135,150.3461 L1506.7444,150.3968 L1506.5763,150.4504 L1506.4091,150.5070 L1506.2430,150.5666 L1506.0779,150.6290 L1505.9140,150.6944 L1505.7512,150.7627 L1505.5897,150.8338 L1505.4294,150.9078 L1505.2705,150.9845 L1505.1130,151.0641 L1504.9569,151.1464 L1504.8022,151.2315 L1504.6491,151.3193 L1504.4976,151.4098 L1504.3477,151.5029 L1504.1994,151.5987 L1504.0529,151.6971 L1503.9081,151.7980 L1503.7652,151.9015 L1503.6241,152.0075 L1503.4848,152.1160 L1503.3475,152.2269 L1503.2122,152.3402 L1503.0789,152.4559 L1502.9477,152.5739 L1502.8186,152.6942 L1502.6916,152.8168 L1502.5668,152.9416 L1502.4442,153.0686 L1502.3239,153.1977 L1502.2059,153.3289 L1502.0902,153.4622 L1501.9769,153.5975 L1501.8660,153.7348 L1501.7575,153.8741 L1501.6515,154.0152 L1501.5480,154.1581 L1501.4471,154.3029 L1501.3487,154.4494 L1501.2529,154.5977 L1501.1598,154.7476 L1501.0693,154.8991 L1500.9815,155.0522 L1500.8964,155.2069 L1500.8141,155.3630 L1500.7345,155.5205 L1500.6578,155.6794 L1500.5838,155.8397 L1500.5127,156.0012 L1500.4444,156.1640 L1500.3790,156.3279 L1500.3166,156.4930 L1500.2570,156.6591 L1500.2004,156.8263 L1500.1468,156.9944 L1500.0961,157.1635 L1500.0484,157.3334 L1500.0037,157.5042 L1499.9621,157.6757 L1499.9234,157.8479 L1499.8879,158.0207 L1499.8553,158.1942 L1499.8259,158.3682 L1499.7995,158.5427 L1499.7762,158.7177 L1499.7560,158.8930 L1499.7389,159.0687 L1499.7249,159.2446 L1499.7140,159.4208 L1499.7062,159.5971 L1499.7016,159.7735 L1499.7000,159.9500 L1499.7000,290.0500 L1499.7016,290.2265 L1499.7062,290.4029 L1499.7140,290.5792 L1499.7249,290.7554 L1499.7389,290.9313 L1499.7560,291.1070 L1499.7762,291.2823 L1499.7995,291.4573 L1499.8259,291.6318 L1499.8553,291.8058 L1499.8879,291.9793 L1499.9234,292.1521 L1499.9621,292.3243 L1500.0037,292.4958 L1500.0484,292.6666 L1500.0961,292.8365 L1500.1468,293.0056 L1500.2004,293.1737 L1500.2570,293.3409 L1500.3166,293.5070 L1500.3790,293.6721 L1500.4444,293.8360 L1500.5127,293.9988 L1500.5838,294.1603 L1500.6578,294.3206 L1500.7345,294.4795 L1500.8141,294.6370 L1500.8964,294.7931 L1500.9815,294.9478 L1501.0693,295.1009 L1501.1598,295.2524 L1501.2529,295.4023 L1501.3487,295.5506 L1501.4471,295.6971 L1501.5480,295.8419 L1501.6515,295.9848 L1501.7575,296.1259 L1501.8660,296.2652 L1501.9769,296.4025 L1502.0902,296.5378 L1502.2059,296.6711 L1502.3239,296.8023 L1502.4442,296.9314 L1502.5668,297.0584 L1502.6916,297.1832 L1502.8186,297.3058 L1502.9477,297.4261 L1503.0789,297.5441 L1503.2122,297.6598 L1503.3475,297.7731 L1503.4848,297.8840 L1503.6241,297.9925 L1503.7652,298.0985 L1503.9081,298.2020 L1504.0529,298.3029 L1504.1994,298.4013 L1504.3477,298.4971 L1504.4976,298.5902 L1504.6491,298.6807 L1504.8022,298.7685 L1504.9569,298.8536 L1505.1130,298.9359 L1505.2705,299.0155 L1505.4294,299.0922 L1505.5897,299.1662 L1505.7512,299.2373 L1505.9140,299.3056 L1506.0779,299.3710 L1506.2430,299.4334 L1506.4091,299.4930 L1506.5763,299.5496 L1506.7444,299.6032 L1506.9135,299.6539 L1507.0834,299.7016 L1507.2542,299.7463 L1507.4257,299.7879 L1507.5979,299.8266 L1507.7707,299.8621 L1507.9442,299.8947 L1508.1182,299.9241 L1508.2927,299.9505 L1508.4677,299.9738 L1508.6430,299.9940 L1508.8187,300.0111 L1508.9946,300.0251 L1509.1708,300.0360 L1509.3471,300.0438 L1509.5235,300.0484 L1509.7000,300.0500 L1980.0500,300.0500 L1980.2265,300.0484 L1980.4029,300.0438 L1980.5792,300.0360 L1980.7554,300.0251 L1980.9313,300.0111 L1981.1070,299.9940 L1981.2823,299.9738 L1981.4573,299.9505 L1981.6318,299.9241 L1981.8058,299.8947 L1981.9793,299.8621 L1982.1521,299.8266 L1982.3243,299.7879 L1982.4958,299.7463 L1982.6666,299.7016 L1982.8365,299.6539 L1983.0056,299.6032 L1983.1737,299.5496 L1983.3409,299.4930 L1983.5070,299.4334 L1983.6721,299.3710 L1983.8360,299.3056 L1983.9988,299.2373 L1984.1603,299.1662 L1984.3206,299.0922 L1984.4795,299.0155 L1984.6370,298.9359 L1984.7931,298.8536 L1984.9478,298.7685 L1985.1009,298.6807 L1985.2524,298.5902 L1985.4023,298.4971 L1985.5506,298.4013 L1985.6971,298.3029 L1985.8419,298.2020 L1985.9848,298.0985 L1986.1259,297.9925 L1986.2652,297.8840 L1986.4025,297.7731 L1986.5378,297.6598 L1986.6711,297.5441 L1986.8023,297.4261 L1986.9314,297.3058 L1987.0584,297.1832 L1987.1832,297.0584 L1987.3058,296.9314 L1987.4261,296.8023 L1987.5441,296.6711 L1987.6598,296.5378 L1987.7731,296.4025 L1987.8840,296.2652 L1987.9925,296.1259 L1988.0985,295.9848 L1988.2020,295.8419 L1988.3029,295.6971 L1988.4013,295.5506 L1988.4971,295.4023 L1988.5902,295.2524 L1988.6807,295.1009 L1988.7685,294.9478 L1988.8536,294.7931 L1988.9359,294.6370 L1989.0155,294.4795 L1989.0922,294.3206 L1989.1662,294.1603 L1989.2373,293.9988 L1989.3056,293.8360 L1989.3710,293.6721 L1989.4334,293.5070 L1989.4930,293.3409 L1989.5496,293.1737 L1989.6032,293.0056 L1989.6539,292.8365 L1989.7016,292.6666 L1989.7463,292.4958 L1989.7879,292.3243 L1989.8266,292.1521 L1989.8621,291.9793 L1989.8947,291.8058 L1989.9241,291.6318 L1989.9505,291.4573 L1989.9738,291.2823 L1989.9940,291.1070 L1990.0111,290.9313 L1990.0251,290.7554 L1990.0360,290.5792 L1990.0438,290.4029 L1990.0484,290.2265 L1990.0500,290.0500 L1990.0500,159.9500 L1990.0484,159.7735 L1990.0438,159.5971 L1990.0360,159.4208 L1990.0251,159.2446 L1990.0111,159.0687 L1989.9940,158.8930 L1989.9738,158.7177 L1989.9505,158.5427 L1989.9241,158.3682 L1989.8947,158.1942 L1989.8621,158.0207 L1989.8266,157.8479 L1989.7879,157.6757 L1989.7463,157.5042 L1989.7016,157.3334 L1989.6539,157.1635 L1989.6032,156.9944 L1989.5496,156.8263 L1989.4930,156.6591 L1989.4334,156.4930 L1989.3710,156.3279 L1989.3056,156.1640 L1989.2373,156.0012 L1989.1662,155.8397 L1989.0922,155.6794 L1989.0155,155.5205 L1988.9359,155.3630 L1988.8536,155.2069 L1988.7685,155.0522 L1988.6807,154.8991 L1988.5902,154.7476 L1988.4971,154.5977 L1988.4013,154.4494 L1988.3029,154.3029 L1988.2020,154.1581 L1988.0985,154.0152 L1987.9925,153.8741 L1987.8840,153.7348 L1987.7731,153.5975 L1987.6598,153.4622 L1987.5441,153.3289 L1987.4261,153.1977 L1987.3058,153.0686 L1987.1832,152.9416 L1987.0584,152.8168 L1986.9314,152.6942 L1986.8023,152.5739 L1986.6711,152.4559 L1986.5378,152.3402 L1986.4025,152.2269 L1986.2652,152.1160 L1986.1259,152.0075 L1985.9848,151.9015 L1985.8419,151.7980 L1985.6971,151.6971 L1985.5506,151.5987 L1985.4023,151.5029 L1985.2524,151.4098 L1985.1009,151.3193 L1984.9478,151.2315 L1984.7931,151.1464 L1984.6370,151.0641 L1984.4795,150.9845 L1984.3206,150.9078 L1984.1603,150.8338 L1983.9988,150.7627 L1983.8360,150.6944 L1983.6721,150.6290 L1983.5070,150.5666 L1983.3409,150.5070 L1983.1737,150.4504 L1983.0056,150.3968 L1982.8365,150.3461 L1982.6666,150.2984 L1982.4958,150.2537 L1982.3243,150.2121 L1982.1521,150.1734 L1981.9793,150.1379 L1981.8058,150.1053 L1981.6318,150.0759 L1981.4573,150.0495 L1981.2823,150.0262 L1981.1070,150.0060 L1980.9313,149.9889 L1980.7554,149.9749 L1980.5792,149.9640 L1980.4029,149.9562 L1980.2265,149.9516 L1980.0500,149.9500 L1509.7000,149.9500"></path>
</g>
</svg>