<?xml version="1.0" encoding="utf-8"?>
<svg xmlns="http://www.w3.org/2000/svg" width="462.0000mm" height="462.0000mm" viewBox="1461.8500 494.0000 462.0000 462.0000">
<g>
	<path d="M1467.8000,499.9500 L1467.8000,526.4206 L1461.8500,526.4206 L1461.8500,526.4206 L1461.8500,552.9912 L1467.8000,552.9912 L1467.8000,552.9912 L1467.8000,579.3618 L1461.8500,579.3618 L1461.8500,579.3618 L1461.8500,605.9324 L1467.8000,605.9324 L1467.8000,605.9324 L1467.8000,632.3029 L1461.8500,632.3029 L1461.8500,632.3029 L1461.8500,658.8735 L1467.8000,658.8735 L1467.8000,658.8735 L1467.8000,685.2441 L1461.8500,685.2441 L1461.8500,685.2441 L1461.8500,711.8147 L1467.8000,711.8147 L1467.8000,711.8147 L1467.8000,738.1853 L1461.8500,738.1853 L1461.8500,738.1853 L1461.8500,764.7559 L1467.8000,764.7559 L1467.8000,764.7559 L1467.8000,791.1265 L1461.8500,791.1265 L1461.8500,791.1265 L1461.8500,817.6971 L1467.8000,817.6971 L1467.8000,817.6971 L1467.8000,844.0676 L1461.8500,844.0676 L1461.8500,844.0676 L1461.8500,870.6382 L1467.8000,870.6382 L1467.8000,870.6382 L1467.8000,897.0088 L1461.8500,897.0088 L1461.8500,897.0088 L1461.8500,923.5794 L1467.8000,923.5794 L1467.8000,923.5794 L1467.8000,950.0500 L1467.8000,950.0500 L1494.2706,950.0500 L1494.2706,956.0000 L1494.2706,956.0000 L1520.8412,956.0000 L1520.8412,950.0500 L1520.8412,950.0500 L1547.2118,950.0500 L1547.2118,956.0000 L1547.2118,956.0000 L1573.7824,956.0000 L1573.7824,950.0500 L1573.7824,950.0500 L1600.1529,950.0500 L1600.1529,956.0000 L1600.1529,956.0000 L1626.7235,956.0000 L1626.7235,950.0500 L1626.7235,950.0500 L1653.0941,950.0500 L1653.0941,956.0000 L1653.0941,956.0000 L1679.6647,956.0000 L1679.6647,950.0500 L1679.6647,950.0500 L1706.0353,950.0500 L1706.0353,956.0000 L1706.0353,956.0000 L1732.6059,956.0000 L1732.6059,950.0500 L1732.6059,950.0500 L1758.9765,950.0500 L1758.9765,956.0000 L1758.9765,956.0000 L1785.5471,956.0000 L1785.5471,950.0500 L1785.5471,950.0500 L1811.9176,950.0500 L1811.9176,956.0000 L1811.9176,956.0000 L1838.4882,956.0000 L1838.4882,950.0500 L1838.4882,950.0500 L1864.8588,950.0500 L1864.8588,956.0000 L1864.8588,956.0000 L1891.4294,956.0000 L1891.4294,950.0500 L1891.4294,950.0500 L1917.9000,950.0500 L1917.9000,950.0500 L1917.9000,923.5794 L1923.8500,923.5794 L1923.8500,923.5794 L1923.8500,897.0088 L1917.9000,897.0088 L1917.9000,897.0088 L1917.9000,870.6382 L1923.8500,870.6382 L1923.8500,870.6382 L1923.8500,844.0676 L1917.9000,844.0676 L1917.9000,844.0676 L1917.9000,817.6971 L1923.8500,817.6971 L1923.8500,817.6971 L1923.8500,791.1265 L1917.9000,791.1265 L1917.9000,791.1265 L1917.9000,764.7559 L1923.8500,764.7559 L1923.8500,764.7559 L1923.8500,738.1853 L1917.9000,738.1853 L1917.9000,738.1853 L1917.9000,711.8147 L1923.8500,711.8147 L1923.8500,711.8147 L1923.8500,685.2441 L1917.9000,685.2441 L1917.9000,685.2441 L1917.9000,658.8735 L1923.8500,658.8735 L1923.8500,658.8735 L1923.8500,632.3029 L1917.9000,632.3029 L1917.9000,632.3029 L1917.9000,605.9324 L1923.8500,605.9324 L1923.8500,605.9324 L1923.8500,579.3618 L1917.9000,579.3618 L1917.9000,579.3618 L1917.9000,552.9912 L1923.8500,552.9912 L1923.8500,552.9912 L1923.8500,526.4206 L1917.9000,526.4206 L1917.9000,526.4206 L1917.9000,499.9500 L1917.9000,499.9500 L1891.4294,499.9500 L1891.4294,494.0000 L1891.4294,494.0000 L1864.8588,494.0000 L1864.8588,499.9500 L1864.8588,499.9500 L1838.4882,499.9500 L1838.4882,494.0000 L1838.4882,494.0000 L1811.9176,494.0000 L1811.9176,499.9500 L1811.9176,499.9500 L1785.5471,499.9500 L1785.5471,494.0000 L1785.5471,494.0000 L1758.9765,494.0000 L1758.9765,499.9500 L1758.9765,499.9500 L1732.6059,499.9500 L1732.6059,494.0000 L1732.6059,494.0000 L1706.0353,494.0000 L1706.0353,499.9500 L1706.0353,499.9500 L1679.6647,499.9500 L1679.6647,494.0000 L1679.6647,494.0000 L1653.0941,494.0000 L1653.0941,499.9500 L1653.0941,499.9500 L1626.7235,499.9500 L1626.7235,494.0000 L1626.7235,494.0000 L1600.1529,494.0000 L1600.1529,499.9500 L1600.1529,499.9500 L1573.7824,499.9500 L1573.7824,494.0000 L1573.7824,494.0000 L1547.2118,494.0000 L1547.2118,499.9500 L1547.2118,499.9500 L1520.8412,499.9500 L1520.8412,494.0000 L1520.8412,494.0000 L1494.2706,494.0000 L1494.2706,499.9500 L1494.2706,499.9500 L1467.8000,499.9500 L1467.8000,499.9500"></path>
	<path d="M1628.4500,523.8000 L1757.2500,523.8000 L1757.2500,533.8000 L1727.2500,533.8000 L1727.2500,916.2000 L1757.2500,916.2000 L1757.2500,926.2000 L1628.4500,926.2000 L1628.4500,916.2000 L1658.4500,916.2000 L1658.4500,533.8000 L1628.4500,533.8000 L1628.4500,523.8000"></path>
</g>
</svg>