<?xml version="1.0" encoding="utf-8"?>
<svg xmlns="http://www.w3.org/2000/svg" width="462.0000mm" height="596.0500mm" viewBox="994.0000 467.8000 462.0000 596.0500">
<g>
	<path d="M999.9500,467.8000 L999.9500,493.4522 L994.0000,493.4522 L994.0000,493.4522 L994.0000,519.2043 L999.9500,519.2043 L999.9500,519.2043 L999.9500,544.7565 L994.0000,544.7565 L994.0000,544.7565 L994.0000,570.5087 L999.9500,570.5087 L999.9500,570.5087 L999.9500,596.0609 L994.0000,596.0609 L994.0000,596.0609 L994.0000,621.8130 L999.9500,621.8130 L999.9500,621.8130 L999.9500,647.3652 L994.0000,647.3652 L994.0000,647.3652 L994.0000,673.1174 L999.9500,673.1174 L999.9500,673.1174 L999.9500,698.6696 L994.0000,698.6696 L994.0000,698.6696 L994.0000,724.4217 L999.9500,724.4217 L999.9500,724.4217 L999.9500,749.9739 L994.0000,749.9739 L994.0000,749.9739 L994.0000,775.7261 L999.9500,775.7261 L999.9500,775.7261 L999.9500,801.2783 L994.0000,801.2783 L994.0000,801.2783 L994.0000,827.0304 L999.9500,827.0304 L999.9500,827.0304 L999.9500,852.5826 L994.0000,852.5826 L994.0000,852.5826 L994.0000,878.3348 L999.9500,878.3348 L999.9500,878.3348 L999.9500,903.8870 L994.0000,903.8870 L994.0000,903.8870 L994.0000,929.6391 L999.9500,929.6391 L999.9500,929.6391 L999.9500,955.1913 L994.0000,955.1913 L994.0000,955.1913 L994.0000,980.9435 L999.9500,980.9435 L999.9500,980.9435 L999.9500,1006.4957 L994.0000,1006.4957 L994.0000,1006.4957 L994.0000,1032.2478 L999.9500,1032.2478 L999.9500,1032.2478 L999.9500,1057.9000 L999.9500,1057.9000 L1025.6022,1057.9000 L1025.6022,1063.8500 L1025.6022,1063.8500 L1051.3543,1063.8500 L1051.3543,1057.9000 L1051.3543,1057.9000 L1076.9565,1057.9000 L1102.6587,1057.9000 L1102.5587,1057.9000 L1225.0000,1057.9000 L1347.4413,1057.9000 L1347.3413,1057.9000 L1373.0435,1057.9000 L1398.6457,1057.9000 L1398.6457,1063.8500 L1398.6457,1063.8500 L1424.3978,1063.8500 L1424.3978,1057.9000 L1424.3978,1057.9000 L1450.0500,1057.9000 L1450.0500,1057.9000 L1450.0500,1032.2478 L1456.0000,1032.2478 L1456.0000,1032.2478 L1456.0000,1006.4957 L1450.0500,1006.4957 L1450.0500,1006.4957 L1450.0500,980.9435 L1456.0000,980.9435 L1456.0000,980.9435 L1456.0000,955.1913 L1450.0500,955.1913 L1450.0500,955.1913 L1450.0500,929.6391 L1456.0000,929.6391 L1456.0000,929.6391 L1456.0000,903.8870 L1450.0500,903.8870 L1450.0500,903.8870 L1450.0500,878.3348 L1456.0000,878.3348 L1456.0000,878.3348 L1456.0000,852.5826 L1450.0500,852.5826 L1450.0500,852.5826 L1450.0500,827.0304 L1456.0000,827.0304 L1456.0000,827.0304 L1456.0000,801.2783 L1450.0500,801.2783 L1450.0500,801.2783 L1450.0500,775.7261 L1456.0000,775.7261 L1456.0000,775.7261 L1456.0000,749.9739 L1450.0500,749.9739 L1450.0500,749.9739 L1450.0500,724.4217 L1456.0000,724.4217 L1456.0000,724.4217 L1456.0000,698.6696 L1450.0500,698.6696 L1450.0500,698.6696 L1450.0500,673.1174 L1456.0000,673.1174 L1456.0000,673.1174 L1456.0000,647.3652 L1450.0500,647.3652 L1450.0500,647.3652 L1450.0500,621.8130 L1456.0000,621.8130 L1456.0000,621.8130 L1456.0000,596.0609 L1450.0500,596.0609 L1450.0500,596.0609 L1450.0500,570.5087 L1456.0000,570.5087 L1456.0000,570.5087 L1456.0000,544.7565 L1450.0500,544.7565 L1450.0500,544.7565 L1450.0500,519.2043 L1456.0000,519.2043 L1456.0000,519.2043 L1456.0000,493.4522 L1450.0500,493.4522 L1450.0500,493.4522 L1450.0500,467.8000 L1450.0500,467.8000 L1225.0000,467.8000 L999.9500,467.8000 L999.9500,467.8000"></path>
	<path d="M1026.5206,487.8000 L1026.5206,481.9500 L1052.8912,481.9500 L1052.8912,487.8000 L1026.5206,487.8000"></path>
	<path d="M1079.4618,487.8000 L1079.4618,481.9500 L1105.8324,481.9500 L1105.8324,487.8000 L1079.4618,487.8000"></path>
	<path d="M1132.4029,487.8000 L1132.4029,481.9500 L1158.7735,481.9500 L1158.7735,487.8000 L1132.4029,487.8000"></path>
	<path d="M1185.3441,487.8000 L1185.3441,481.9500 L1211.7147,481.9500 L1211.7147,487.8000 L1185.3441,487.8000"></path>
	<path d="M1238.2853,487.8000 L1238.2853,481.9500 L1264.6559,481.9500 L1264.6559,487.8000 L1238.2853,487.8000"></path>
	<path d="M1291.2265,487.8000 L1291.2265,481.9500 L1317.5971,481.9500 L1317.5971,487.8000 L1291.2265,487.8000"></path>
	<path d="M1344.1676,487.8000 L1344.1676,481.9500 L1370.5382,481.9500 L1370.5382,487.8000 L1344.1676,487.8000"></path>
	<path d="M1397.1088,487.8000 L1397.1088,481.9500 L1423.4794,481.9500 L1423.4794,487.8000 L1397.1088,487.8000"></path>
	<path d="M1026.5206,1007.8000 L1026.5206,1001.9500 L1052.8912,1001.9500 L1052.8912,1007.8000 L1026.5206,1007.8000"></path>
	<path d="M1079.4618,1007.8000 L1079.4618,1001.9500 L1105.8324,1001.9500 L1105.8324,1007.8000 L1079.4618,1007.8000"></path>
	<path d="M1132.4029,1007.8000 L1132.4029,1001.9500 L1158.7735,1001.9500 L1158.7735,1007.8000 L1132.4029,1007.8000"></path>
	<path d="M1185.3441,1007.8000 L1185.3441,1001.9500 L1211.7147,1001.9500 L1211.7147,1007.8000 L1185.3441,1007.8000"></path>
	<path d="M1238.2853,1007.8000 L1238.2853,1001.9500 L1264.6559,1001.9500 L1264.6559,1007.8000 L1238.2853,1007.8000"></path>
	<path d="M1291.2265,1007.8000 L1291.2265,1001.9500 L1317.5971,1001.9500 L1317.5971,1007.8000 L1291.2265,1007.8000"></path>
	<path d="M1344.1676,1007.8000 L1344.1676,1001.9500 L1370.5382,1001.9500 L1370.5382,1007.8000 L1344.1676,1007.8000"></path>
	<path d="M1397.1088,1007.8000 L1397.1088,1001.9500 L1423.4794,1001.9500 L1423.4794,1007.8000 L1397.1088,1007.8000"></path>
</g>
</svg>