<?xml version="1.0" encoding="utf-8"?>
<svg xmlns="http://www.w3.org/2000/svg" width="512.0000mm" height="156.0500mm" viewBox="-6.0000 -167.9000 512.0000 156.0500">
<g>
	<path d="M-0.0500,-17.8000 L-0.0500,-34.4667 L-6.0000,-34.4667 L-6.0000,-34.4667 L-6.0000,-51.2333 L-0.0500,-51.2333 L-0.0500,-51.2333 L-0.0500,-67.8000 L-6.0000,-67.8000 L-6.0000,-67.8000 L-6.0000,-84.5667 L-0.0500,-84.5667 L-0.0500,-84.5667 L-0.0500,-101.1333 L-6.0000,-101.1333 L-6.0000,-101.1333 L-6.0000,-117.9000 L-0.0500,-117.9000 L-0.0500,-117.9000 L-0.0500,-134.4667 L-6.0000,-134.4667 L-6.0000,-134.4667 L-6.0000,-151.2333 L-0.0500,-151.2333 L-0.0500,-151.2333 L-0.0500,-167.9000 L-0.0500,-167.9000 L250.0000,-167.9000 L500.0500,-167.9000 L500.0500,-167.9000 L500.0500,-151.2333 L506.0000,-151.2333 L506.0000,-151.2333 L506.0000,-134.4667 L500.0500,-134.4667 L500.0500,-134.4667 L500.0500,-117.9000 L506.0000,-117.9000 L506.0000,-117.9000 L506.0000,-101.1333 L500.0500,-101.1333 L500.0500,-101.1333 L500.0500,-84.5667 L506.0000,-84.5667 L506.0000,-84.5667 L506.0000,-67.8000 L500.0500,-67.8000 L500.0500,-67.8000 L500.0500,-51.2333 L506.0000,-51.2333 L506.0000,-51.2333 L506.0000,-34.4667 L500.0500,-34.4667 L500.0500,-34.4667 L500.0500,-17.8000 L500.0500,-17.8000 L478.3109,-17.8000 L478.3109,-11.8500 L478.3109,-11.8500 L456.4717,-11.8500 L456.4717,-17.8000 L456.4717,-17.8000 L434.8326,-17.8000 L434.8326,-11.8500 L434.8326,-11.8500 L412.9935,-11.8500 L412.9935,-17.8000 L412.9935,-17.8000 L391.3543,-17.8000 L391.3543,-11.8500 L391.3543,-11.8500 L369.5152,-11.8500 L369.5152,-17.8000 L369.5152,-17.8000 L347.8761,-17.8000 L347.8761,-11.8500 L347.8761,-11.8500 L326.0370,-11.8500 L326.0370,-17.8000 L326.0370,-17.8000 L304.3978,-17.8000 L304.3978,-11.8500 L304.3978,-11.8500 L282.5587,-11.8500 L282.5587,-17.8000 L282.5587,-17.8000 L260.9196,-17.8000 L260.9196,-11.8500 L260.9196,-11.8500 L239.0804,-11.8500 L239.0804,-17.8000 L239.0804,-17.8000 L217.4413,-17.8000 L217.4413,-11.8500 L217.4413,-11.8500 L195.6022,-11.8500 L195.6022,-17.8000 L195.6022,-17.8000 L173.9630,-17.8000 L173.9630,-11.8500 L173.9630,-11.8500 L152.1239,-11.8500 L152.1239,-17.8000 L152.1239,-17.8000 L130.4848,-17.8000 L130.4848,-11.8500 L130.4848,-11.8500 L108.6457,-11.8500 L108.6457,-17.8000 L108.6457,-17.8000 L87.0065,-17.8000 L87.0065,-11.8500 L87.0065,-11.8500 L65.1674,-11.8500 L65.1674,-17.8000 L65.1674,-17.8000 L43.5283,-17.8000 L43.5283,-11.8500 L43.5283,-11.8500 L21.6891,-11.8500 L21.6891,-17.8000 L21.6891,-17.8000 L-0.0500,-17.8000 L-0.0500,-17.8000"></path>
</g>
</svg>