<?xml version="1.0" encoding="utf-8"?>
<svg xmlns="http://www.w3.org/2000/svg" width="512.0000mm" height="512.0000mm" viewBox="-6.0000 -6.0000 512.0000 512.0000">
<g>
	<path d="M-0.0500,-6.0000 L-6.0000,-6.0000 L-6.0000,0.0000 L-6.0000,21.7891 L-0.0500,21.7891 L-0.0500,21.7891 L-0.0500,43.4283 L-6.0000,43.4283 L-6.0000,43.4283 L-6.0000,65.2674 L-0.0500,65.2674 L-0.0500,65.2674 L-0.0500,86.9065 L-6.0000,86.9065 L-6.0000,86.9065 L-6.0000,108.7457 L-0.0500,108.7457 L-0.0500,108.7457 L-0.0500,130.3848 L-6.0000,130.3848 L-6.0000,130.3848 L-6.0000,152.2239 L-0.0500,152.2239 L-0.0500,152.2239 L-0.0500,173.8630 L-6.0000,173.8630 L-6.0000,173.8630 L-6.0000,195.7022 L-0.0500,195.7022 L-0.0500,195.7022 L-0.0500,217.3413 L-6.0000,217.3413 L-6.0000,217.3413 L-6.0000,239.1804 L-0.0500,239.1804 L-0.0500,239.1804 L-0.0500,260.8196 L-6.0000,260.8196 L-6.0000,260.8196 L-6.0000,282.6587 L-0.0500,282.6587 L-0.0500,282.6587 L-0.0500,304.2978 L-6.0000,304.2978 L-6.0000,304.2978 L-6.0000,326.1370 L-0.0500,326.1370 L-0.0500,326.1370 L-0.0500,347.7761 L-6.0000,347.7761 L-6.0000,347.7761 L-6.0000,369.6152 L-0.0500,369.6152 L-0.0500,369.6152 L-0.0500,391.2543 L-6.0000,391.2543 L-6.0000,391.2543 L-6.0000,413.0935 L-0.0500,413.0935 L-0.0500,413.0935 L-0.0500,434.7326 L-6.0000,434.7326 L-6.0000,434.7326 L-6.0000,456.5717 L-0.0500,456.5717 L-0.0500,456.5717 L-0.0500,478.2109 L-6.0000,478.2109 L-6.0000,478.2109 L-6.0000,500.0000 L-6.0000,506.0000 L-0.0500,506.0000 L-0.0500,506.0000 L21.7891,506.0000 L21.7891,500.0500 L21.7891,500.0500 L43.4283,500.0500 L43.4283,506.0000 L43.4283,506.0000 L65.2674,506.0000 L65.2674,500.0500 L65.2674,500.0500 L86.9065,500.0500 L86.9065,506.0000 L86.9065,506.0000 L108.7457,506.0000 L108.7457,500.0500 L108.7457,500.0500 L130.3848,500.0500 L130.3848,506.0000 L130.3848,506.0000 L152.2239,506.0000 L152.2239,500.0500 L152.2239,500.0500 L173.8630,500.0500 L173.8630,506.0000 L173.8630,506.0000 L195.7022,506.0000 L195.7022,500.0500 L195.7022,500.0500 L217.3413,500.0500 L217.3413,506.0000 L217.3413,506.0000 L239.1804,506.0000 L239.1804,500.0500 L239.1804,500.0500 L260.8196,500.0500 L260.8196,506.0000 L260.8196,506.0000 L282.6587,506.0000 L282.6587,500.0500 L282.6587,500.0500 L304.2978,500.0500 L304.2978,506.0000 L304.2978,506.0000 L326.1370,506.0000 L326.1370,500.0500 L326.1370,500.0500 L347.7761,500.0500 L347.7761,506.0000 L347.7761,506.0000 L369.6152,506.0000 L369.6152,500.0500 L369.6152,500.0500 L391.2543,500.0500 L391.2543,506.0000 L391.2543,506.0000 L413.0935,506.0000 L413.0935,500.0500 L413.0935,500.0500 L434.7326,500.0500 L434.7326,506.0000 L434.7326,506.0000 L456.5717,506.0000 L456.5717,500.0500 L456.5717,500.0500 L478.2109,500.0500 L478.2109,506.0000 L478.2109,506.0000 L500.0500,506.0000 L500.0500,506.0000 L506.0000,506.0000 L506.0000,500.0000 L506.0000,478.2109 L500.0500,478.2109 L500.0500,478.2109 L500.0500,456.5717 L506.0000,456.5717 L506.0000,456.5717 L506.0000,434.7326 L500.0500,434.7326 L500.0500,434.7326 L500.0500,413.0935 L506.0000,413.0935 L506.0000,413.0935 L506.0000,391.2543 L500.0500,391.2543 L500.0500,391.2543 L500.0500,369.6152 L506.0000,369.6152 L506.0000,369.6152 L506.0000,347.7761 L500.0500,347.7761 L500.0500,347.7761 L500.0500,326.1370 L506.0000,326.1370 L506.0000,326.1370 L506.0000,304.2978 L500.0500,304.2978 L500.0500,304.2978 L500.0500,282.6587 L506.0000,282.6587 L506.0000,282.6587 L506.0000,260.8196 L500.0500,260.8196 L500.0500,260.8196 L500.0500,239.1804 L506.0000,239.1804 L506.0000,239.1804 L506.0000,217.3413 L500.0500,217.3413 L500.0500,217.3413 L500.0500,195.7022 L506.0000,195.7022 L506.0000,195.7022 L506.0000,173.8630 L500.0500,173.8630 L500.0500,173.8630 L500.0500,152.2239 L506.0000,152.2239 L506.0000,152.2239 L506.0000,130.3848 L500.0500,130.3848 L500.0500,130.3848 L500.0500,108.7457 L506.0000,108.7457 L506.0000,108.7457 L506.0000,86.9065 L500.0500,86.9065 L500.0500,86.9065 L500.0500,65.2674 L506.0000,65.2674 L506.0000,65.2674 L506.0000,43.4283 L500.0500,43.4283 L500.0500,43.4283 L500.0500,21.7891 L506.0000,21.7891 L506.0000,21.7891 L506.0000,0.0000 L506.0000,-6.0000 L500.0500,-6.0000 L500.0500,-6.0000 L478.2109,-6.0000 L478.2109,-0.0500 L478.2109,-0.0500 L456.5717,-0.0500 L456.5717,-6.0000 L456.5717,-6.0000 L434.7326,-6.0000 L434.7326,-0.0500 L434.7326,-0.0500 L413.0935,-0.0500 L413.0935,-6.0000 L413.0935,-6.0000 L391.2543,-6.0000 L391.2543,-0.0500 L391.2543,-0.0500 L369.6152,-0.0500 L369.6152,-6.0000 L369.6152,-6.0000 L347.7761,-6.0000 L347.7761,-0.0500 L347.7761,-0.0500 L326.1370,-0.0500 L326.1370,-6.0000 L326.1370,-6.0000 L304.2978,-6.0000 L304.2978,-0.0500 L304.2978,-0.0500 L282.6587,-0.0500 L282.6587,-6.0000 L282.6587,-6.0000 L260.8196,-6.0000 L260.8196,-0.0500 L260.8196,-0.0500 L239.1804,-0.0500 L239.1804,-6.0000 L239.1804,-6.0000 L217.3413,-6.0000 L217.3413,-0.0500 L217.3413,-0.0500 L195.7022,-0.0500 L195.7022,-6.0000 L195.7022,-6.0000 L173.8630,-6.0000 L173.8630,-0.0500 L173.8630,-0.0500 L152.2239,-0.0500 L152.2239,-6.0000 L152.2239,-6.0000 L130.3848,-6.0000 L130.3848,-0.0500 L130.3848,-0.0500 L108.7457,-0.0500 L108.7457,-6.0000 L108.7457,-6.0000 L86.9065,-6.0000 L86.9065,-0.0500 L86.9065,-0.0500 L65.2674,-0.0500 L65.2674,-6.0000 L65.2674,-6.0000 L43.4283,-6.0000 L43.4283,-0.0500 L43.4283,-0.0500 L21.7891,-0.0500 L21.7891,-6.0000 L21.7891,-6.0000 L-0.0500,-6.0000 L-0.0500,-6.0000"></path>
	<path d="M227.5500,67.3413 L221.5000,67.3413 L221.5000,84.8326 L227.5500,84.8326 L227.5500,67.3413"></path>
	<path d="M227.5500,102.1239 L221.5000,102.1239 L221.5000,119.6152 L227.5500,119.6152 L227.5500,102.1239"></path>
	<path d="M227.5500,136.9065 L221.5000,136.9065 L221.5000,154.3978 L227.5500,154.3978 L227.5500,136.9065"></path>
	<path d="M227.5500,171.6891 L221.5000,171.6891 L221.5000,189.1804 L227.5500,189.1804 L227.5500,171.6891"></path>
	<path d="M227.5500,206.4717 L221.5000,206.4717 L221.5000,223.9630 L227.5500,223.9630 L227.5500,206.4717"></path>
	<path d="M227.5500,241.2543 L221.5000,241.2543 L221.5000,258.7457 L227.5500,258.7457 L227.5500,241.2543"></path>
	<path d="M227.5500,276.0370 L221.5000,276.0370 L221.5000,293.5283 L227.5500,293.5283 L227.5500,276.0370"></path>
	<path d="M227.5500,310.8196 L221.5000,310.8196 L221.5000,328.3109 L227.5500,328.3109 L227.5500,310.8196"></path>
	<path d="M227.5500,345.6022 L221.5000,345.6022 L221.5000,363.0935 L227.5500,363.0935 L227.5500,345.6022"></path>
	<path d="M227.5500,380.3848 L221.5000,380.3848 L221.5000,397.8761 L227.5500,397.8761 L227.5500,380.3848"></path>
	<path d="M227.5500,415.1674 L221.5000,415.1674 L221.5000,432.6587 L227.5500,432.6587 L227.5500,415.1674"></path>
	<path d="M272.4500,67.3413 L278.5000,67.3413 L278.5000,84.8326 L272.4500,84.8326 L272.4500,67.3413"></path>
	<path d="M272.4500,102.1239 L278.5000,102.1239 L278.5000,119.6152 L272.4500,119.6152 L272.4500,102.1239"></path>
	<path d="M272.4500,136.9065 L278.5000,136.9065 L278.5000,154.3978 L272.4500,154.3978 L272.4500,136.9065"></path>
	<path d="M272.4500,171.6891 L278.5000,171.6891 L278.5000,189.1804 L272.4500,189.1804 L272.4500,171.6891"></path>
	<path d="M272.4500,206.4717 L278.5000,206.4717 L278.5000,223.9630 L272.4500,223.9630 L272.4500,206.4717"></path>
	<path d="M272.4500,241.2543 L278.5000,241.2543 L278.5000,258.7457 L272.4500,258.7457 L272.4500,241.2543"></path>
	<path d="M272.4500,276.0370 L278.5000,276.0370 L278.5000,293.5283 L272.4500,293.5283 L272.4500,276.0370"></path>
	<path d="M272.4500,310.8196 L278.5000,310.8196 L278.5000,328.3109 L272.4500,328.3109 L272.4500,310.8196"></path>
	<path d="M272.4500,345.6022 L278.5000,345.6022 L278.5000,363.0935 L272.4500,363.0935 L272.4500,345.6022"></path>
	<path d="M272.4500,380.3848 L278.5000,380.3848 L278.5000,397.8761 L272.4500,397.8761 L272.4500,380.3848"></path>
	<path d="M272.4500,415.1674 L278.5000,415.1674 L278.5000,432.6587 L272.4500,432.6587 L272.4500,415.1674"></path>
	<path d="M50.9706,18.5500 L50.9706,25.5000 L78.4412,25.5000 L78.4412,18.5500 L50.9706,18.5500"></path>
	<path d="M421.5588,18.5500 L421.5588,25.5000 L449.0294,25.5000 L449.0294,18.5500 L421.5588,18.5500"></path>
	<path d="M50.9706,474.5000 L50.9706,481.4500 L78.4412,481.4500 L78.4412,474.5000 L50.9706,474.5000"></path>
	<path d="M421.5588,474.5000 L421.5588,481.4500 L449.0294,481.4500 L449.0294,474.5000 L421.5588,474.5000"></path>
</g>
</svg>