<?xml version="1.0" encoding="utf-8"?>
<svg xmlns="http://www.w3.org/2000/svg" width="156.0500mm" height="400.1000mm" viewBox="59.6000 49.9500 156.0500 400.1000">
<g>
	<path d="M59.6000,61.8500 L126.3667,61.8500 L126.3667,67.9000 L59.6000,67.9000 L59.6000,432.1000 L126.3667,432.1000 L126.3667,438.1500 L59.6000,438.1500 L59.6000,449.9500 L59.6000,450.0500 L134.6500,450.0500 L209.7000,450.0500 L209.7000,450.0500 L209.7000,432.6587 L215.6500,432.6587 L215.6500,432.6587 L215.6500,415.1674 L209.7000,415.1674 L209.7000,415.1674 L209.7000,397.8761 L215.6500,397.8761 L215.6500,397.8761 L215.6500,380.3848 L209.7000,380.3848 L209.7000,380.3848 L209.7000,363.0935 L215.6500,363.0935 L215.6500,363.0935 L215.6500,345.6022 L209.7000,345.6022 L209.7000,345.6022 L209.7000,328.3109 L215.6500,328.3109 L215.6500,328.3109 L215.6500,310.8196 L209.7000,310.8196 L209.7000,310.8196 L209.7000,293.5283 L215.6500,293.5283 L215.6500,293.5283 L215.6500,276.0370 L209.7000,276.0370 L209.7000,276.0370 L209.7000,258.7457 L215.6500,258.7457 L215.6500,258.7457 L215.6500,241.2543 L209.7000,241.2543 L209.7000,241.2543 L209.7000,223.9630 L215.6500,223.9630 L215.6500,223.9630 L215.6500,206.4717 L209.7000,206.4717 L209.7000,206.4717 L209.7000,189.1804 L215.6500,189.1804 L215.6500,189.1804 L215.6500,171.6891 L209.7000,171.6891 L209.7000,171.6891 L209.7000,154.3978 L215.6500,154.3978 L215.6500,154.3978 L215.6500,136.9065 L209.7000,136.9065 L209.7000,136.9065 L209.7000,119.6152 L215.6500,119.6152 L215.6500,119.6152 L215.6500,102.1239 L209.7000,102.1239 L209.7000,102.1239 L209.7000,84.8326 L215.6500,84.8326 L215.6500,84.8326 L215.6500,67.3413 L209.7000,67.3413 L209.7000,67.3413 L209.7000,49.9500 L209.7000,49.9500 L134.6500,49.9500 L59.6000,49.9500 L59.6000,61.8500"></path>
</g>
</svg>