<?xml version="1.0" encoding="utf-8"?>
<svg xmlns="http://www.w3.org/2000/svg" width="156.0500mm" height="512.0000mm" viewBox="511.8500 -6.0000 156.0500 512.0000">
<g>
	<path d="M517.8000,-0.0500 L517.8000,21.6891 L511.8500,21.6891 L511.8500,21.6891 L511.8500,43.5283 L517.8000,43.5283 L517.8000,43.5283 L517.8000,65.1674 L511.8500,65.1674 L511.8500,65.1674 L511.8500,87.0065 L517.8000,87.0065 L517.8000,87.0065 L517.8000,108.6457 L511.8500,108.6457 L511.8500,108.6457 L511.8500,130.4848 L517.8000,130.4848 L517.8000,130.4848 L517.8000,152.1239 L511.8500,152.1239 L511.8500,152.1239 L511.8500,173.9630 L517.8000,173.9630 L517.8000,173.9630 L517.8000,195.6022 L511.8500,195.6022 L511.8500,195.6022 L511.8500,217.4413 L517.8000,217.4413 L517.8000,217.4413 L517.8000,239.0804 L511.8500,239.0804 L511.8500,239.0804 L511.8500,260.9196 L517.8000,260.9196 L517.8000,260.9196 L517.8000,282.5587 L511.8500,282.5587 L511.8500,282.5587 L511.8500,304.3978 L517.8000,304.3978 L517.8000,304.3978 L517.8000,326.0370 L511.8500,326.0370 L511.8500,326.0370 L511.8500,347.8761 L517.8000,347.8761 L517.8000,347.8761 L517.8000,369.5152 L511.8500,369.5152 L511.8500,369.5152 L511.8500,391.3543 L517.8000,391.3543 L517.8000,391.3543 L517.8000,412.9935 L511.8500,412.9935 L511.8500,412.9935 L511.8500,434.8326 L517.8000,434.8326 L517.8000,434.8326 L517.8000,456.4717 L511.8500,456.4717 L511.8500,456.4717 L511.8500,478.3109 L517.8000,478.3109 L517.8000,478.3109 L517.8000,500.0500 L517.8000,506.0000 L534.5667,506.0000 L534.5667,500.0500 L534.5667,500.0500 L551.1333,500.0500 L551.1333,506.0000 L551.1333,506.0000 L567.9000,506.0000 L567.9000,500.0500 L567.9000,500.0500 L584.4667,500.0500 L584.4667,506.0000 L584.4667,506.0000 L601.2333,506.0000 L601.2333,500.0500 L601.2333,500.0500 L617.8000,500.0500 L617.8000,506.0000 L617.8000,506.0000 L634.5667,506.0000 L634.5667,500.0500 L634.5667,500.0500 L651.1333,500.0500 L651.1333,506.0000 L651.1333,506.0000 L667.9000,506.0000 L667.9000,500.0500 L667.9000,250.0000 L667.9000,-0.0500 L667.9000,-6.0000 L651.1333,-6.0000 L651.1333,-0.0500 L651.1333,-0.0500 L634.5667,-0.0500 L634.5667,-6.0000 L634.5667,-6.0000 L617.8000,-6.0000 L617.8000,-0.0500 L617.8000,-0.0500 L601.2333,-0.0500 L601.2333,-6.0000 L601.2333,-6.0000 L584.4667,-6.0000 L584.4667,-0.0500 L584.4667,-0.0500 L567.9000,-0.0500 L567.9000,-6.0000 L567.9000,-6.0000 L551.1333,-6.0000 L551.1333,-0.0500 L551.1333,-0.0500 L534.5667,-0.0500 L534.5667,-6.0000 L534.5667,-6.0000 L517.8000,-6.0000 L517.8000,-0.0500"></path>
</g>
</svg>