<?xml version="1.0" encoding="utf-8"?>
<svg xmlns="http://www.w3.org/2000/svg" width="40.1000mm" height="106.0500mm" viewBox="1204.9500 216.8500 40.1000 106.0500">
<g>
	<path d="M1204.9500,222.8000 L1204.9500,322.9000 L1204.9500,322.9000 L1245.0500,322.9000 L1245.0500,322.9000 L1245.0500,222.8000 L1245.0500,216.8500 L1231.6167,216.8500 L1231.6167,222.8000 L1231.6167,222.8000 L1218.3833,222.8000 L1218.3833,216.8500 L1218.3833,216.8500 L1204.9500,216.8500 L1204.9500,222.8000"></path>
	<path d="M1215.0000,310.9000 L1214.9659,310.9003 L1214.9318,310.9012 L1214.8977,310.9027 L1214.8636,310.9048 L1214.8296,310.9075 L1214.7956,310.9107 L1214.7617,310.9146 L1214.7279,310.9191 L1214.6941,310.9241 L1214.6605,310.9298 L1214.6269,310.9360 L1214.5935,310.9428 L1214.5601,310.9503 L1214.5270,310.9582 L1214.4939,310.9668 L1214.4610,310.9760 L1214.4283,310.9857 L1214.3958,310.9960 L1214.3634,311.0068 L1214.3313,311.0182 L1214.2993,311.0302 L1214.2676,311.0428 L1214.2361,311.0559 L1214.2048,311.0695 L1214.1737,311.0837 L1214.1430,311.0984 L1214.1124,311.1137 L1214.0822,311.1295 L1214.0522,311.1458 L1214.0225,311.1627 L1213.9932,311.1800 L1213.9641,311.1979 L1213.9353,311.2163 L1213.9069,311.2352 L1213.8788,311.2546 L1213.8511,311.2744 L1213.8237,311.2948 L1213.7966,311.3156 L1213.7700,311.3369 L1213.7437,311.3587 L1213.7178,311.3809 L1213.6922,311.4035 L1213.6671,311.4266 L1213.6424,311.4502 L1213.6181,311.4742 L1213.5943,311.4986 L1213.5708,311.5234 L1213.5478,311.5486 L1213.5253,311.5742 L1213.5032,311.6002 L1213.4815,311.6266 L1213.4603,311.6533 L1213.4396,311.6805 L1213.4194,311.7080 L1213.3997,311.7358 L1213.3804,311.7640 L1213.3617,311.7925 L1213.3434,311.8213 L1213.3256,311.8505 L1213.3084,311.8799 L1213.2917,311.9097 L1213.2755,311.9397 L1213.2598,311.9700 L1213.2447,312.0006 L1213.2301,312.0315 L1213.2161,312.0626 L1213.2025,312.0939 L1213.1896,312.1255 L1213.1772,312.1573 L1213.1653,312.1893 L1213.1541,312.2215 L1213.1433,312.2539 L1213.1332,312.2865 L1213.1236,312.3193 L1213.1146,312.3522 L1213.1062,312.3852 L1213.0983,312.4185 L1213.0911,312.4518 L1213.0844,312.4853 L1213.0783,312.5189 L1213.0728,312.5525 L1213.0679,312.5863 L1213.0636,312.6202 L1213.0599,312.6541 L1213.0567,312.6881 L1213.0542,312.7221 L1213.0523,312.7562 L1213.0509,312.7903 L1213.0502,312.8244 L1213.0500,312.8585 L1213.0505,312.8927 L1213.0515,312.9268 L1213.0532,312.9609 L1213.0554,312.9949 L1213.0582,313.0289 L1213.0617,313.0629 L1213.0657,313.0968 L1213.0703,313.1306 L1213.0755,313.1643 L1213.0813,313.1979 L1213.0877,313.2315 L1213.0946,313.2649 L1213.1022,313.2982 L1213.1103,313.3313 L1213.1190,313.3643 L1213.1283,313.3971 L1213.1382,313.4298 L1213.1486,313.4623 L1213.1596,313.4946 L1213.1712,313.5267 L1213.1833,313.5586 L1213.1960,313.5903 L1213.2092,313.6218 L1213.2230,313.6530 L1213.2373,313.6840 L1213.2522,313.7147 L1213.2676,313.7451 L1213.2835,313.7753 L1213.3000,313.8052 L1213.3170,313.8348 L1213.3345,313.8641 L1213.3525,313.8931 L1213.3710,313.9218 L1213.3900,313.9502 L1213.4095,313.9782 L1213.4295,314.0058 L1213.4499,314.0331 L1213.4709,314.0601 L1213.4923,314.0867 L1213.5142,314.1129 L1213.5365,314.1387 L1213.5593,314.1641 L1213.5825,314.1891 L1213.6061,314.2137 L1213.6302,314.2379 L1213.6547,314.2616 L1213.6796,314.2850 L1213.7049,314.3079 L1213.7307,314.3303 L1213.7568,314.3523 L1213.7832,314.3738 L1213.8101,314.3949 L1213.8373,314.4155 L1213.8649,314.4356 L1213.8928,314.4552 L1213.9211,314.4743 L1213.9497,314.4930 L1213.9786,314.5111 L1214.0078,314.5287 L1214.0373,314.5458 L1214.0672,314.5624 L1214.0973,314.5785 L1214.1277,314.5940 L1214.1583,314.6090 L1214.1892,314.6235 L1214.2204,314.6374 L1214.2518,314.6507 L1214.2834,314.6636 L1214.3153,314.6758 L1214.3473,314.6875 L1214.3796,314.6987 L1214.4120,314.7092 L1214.4447,314.7193 L1214.4775,314.7287 L1214.5104,314.7375 L1214.5435,314.7458 L1214.5768,314.7535 L1214.6102,314.7606 L1214.6437,314.7672 L1214.6773,314.7731 L1214.7110,314.7785 L1214.7448,314.7832 L1214.7786,314.7874 L1214.8126,314.7910 L1214.8466,314.7940 L1214.8806,314.7963 L1214.9147,314.7981 L1214.9488,314.7993 L1214.9829,314.7999 L1215.0171,314.7999 L1215.0512,314.7993 L1215.0853,314.7981 L1215.1194,314.7963 L1215.1534,314.7940 L1215.1874,314.7910 L1215.2214,314.7874 L1215.2552,314.7832 L1215.2890,314.7785 L1215.3227,314.7731 L1215.3563,314.7672 L1215.3898,314.7606 L1215.4232,314.7535 L1215.4565,314.7458 L1215.4896,314.7375 L1215.5225,314.7287 L1215.5553,314.7193 L1215.5880,314.7092 L1215.6204,314.6987 L1215.6527,314.6875 L1215.6847,314.6758 L1215.7166,314.6636 L1215.7482,314.6507 L1215.7796,314.6374 L1215.8108,314.6235 L1215.8417,314.6090 L1215.8723,314.5940 L1215.9027,314.5785 L1215.9328,314.5624 L1215.9627,314.5458 L1215.9922,314.5287 L1216.0214,314.5111 L1216.0503,314.4930 L1216.0789,314.4743 L1216.1072,314.4552 L1216.1351,314.4356 L1216.1627,314.4155 L1216.1899,314.3949 L1216.2168,314.3738 L1216.2432,314.3523 L1216.2693,314.3303 L1216.2951,314.3079 L1216.3204,314.2850 L1216.3453,314.2616 L1216.3698,314.2379 L1216.3939,314.2137 L1216.4175,314.1891 L1216.4407,314.1641 L1216.4635,314.1387 L1216.4858,314.1129 L1216.5077,314.0867 L1216.5291,314.0601 L1216.5501,314.0331 L1216.5705,314.0058 L1216.5905,313.9782 L1216.6100,313.9502 L1216.6290,313.9218 L1216.6475,313.8931 L1216.6655,313.8641 L1216.6830,313.8348 L1216.7000,313.8052 L1216.7165,313.7753 L1216.7324,313.7451 L1216.7478,313.7147 L1216.7627,313.6840 L1216.7770,313.6530 L1216.7908,313.6218 L1216.8040,313.5903 L1216.8167,313.5586 L1216.8288,313.5267 L1216.8404,313.4946 L1216.8514,313.4623 L1216.8618,313.4298 L1216.8717,313.3971 L1216.8810,313.3643 L1216.8897,313.3313 L1216.8978,313.2982 L1216.9054,313.2649 L1216.9123,313.2315 L1216.9187,313.1979 L1216.9245,313.1643 L1216.9297,313.1306 L1216.9343,313.0968 L1216.9383,313.0629 L1216.9418,313.0289 L1216.9446,312.9949 L1216.9468,312.9609 L1216.9485,312.9268 L1216.9495,312.8927 L1216.9500,312.8585 L1216.9498,312.8244 L1216.9491,312.7903 L1216.9477,312.7562 L1216.9458,312.7221 L1216.9433,312.6881 L1216.9401,312.6541 L1216.9364,312.6202 L1216.9321,312.5863 L1216.9272,312.5525 L1216.9217,312.5189 L1216.9156,312.4853 L1216.9089,312.4518 L1216.9017,312.4185 L1216.8938,312.3852 L1216.8854,312.3522 L1216.8764,312.3193 L1216.8668,312.2865 L1216.8567,312.2539 L1216.8459,312.2215 L1216.8347,312.1893 L1216.8228,312.1573 L1216.8104,312.1255 L1216.7975,312.0939 L1216.7839,312.0626 L1216.7699,312.0315 L1216.7553,312.0006 L1216.7402,311.9700 L1216.7245,311.9397 L1216.7083,311.9097 L1216.6916,311.8799 L1216.6744,311.8505 L1216.6566,311.8213 L1216.6383,311.7925 L1216.6196,311.7640 L1216.6003,311.7358 L1216.5806,311.7080 L1216.5604,311.6805 L1216.5397,311.6533 L1216.5185,311.6266 L1216.4968,311.6002 L1216.4747,311.5742 L1216.4522,311.5486 L1216.4292,311.5234 L1216.4057,311.4986 L1216.3819,311.4742 L1216.3576,311.4502 L1216.3329,311.4266 L1216.3078,311.4035 L1216.2822,311.3809 L1216.2563,311.3587 L1216.2300,311.3369 L1216.2034,311.3156 L1216.1763,311.2948 L1216.1489,311.2744 L1216.1212,311.2546 L1216.0931,311.2352 L1216.0647,311.2163 L1216.0359,311.1979 L1216.0068,311.1800 L1215.9775,311.1627 L1215.9478,311.1458 L1215.9178,311.1295 L1215.8876,311.1137 L1215.8570,311.0984 L1215.8263,311.0837 L1215.7952,311.0695 L1215.7639,311.0559 L1215.7324,311.0428 L1215.7007,311.0302 L1215.6687,311.0182 L1215.6366,311.0068 L1215.6042,310.9960 L1215.5717,310.9857 L1215.5390,310.9760 L1215.5061,310.9668 L1215.4730,310.9582 L1215.4399,310.9503 L1215.4065,310.9428 L1215.3731,310.9360 L1215.3395,310.9298 L1215.3059,310.9241 L1215.2721,310.9191 L1215.2383,310.9146 L1215.2044,310.9107 L1215.1704,310.9075 L1215.1364,310.9048 L1215.1023,310.9027 L1215.0682,310.9012 L1215.0341,310.9003 L1215.0000,310.9000"></path>
	<path d="M1235.0000,310.9000 L1234.9659,310.9003 L1234.9318,310.9012 L1234.8977,310.9027 L1234.8636,310.9048 L1234.8296,310.9075 L1234.7956,310.9107 L1234.7617,310.9146 L1234.7279,310.9191 L1234.6941,310.9241 L1234.6605,310.9298 L1234.6269,310.9360 L1234.5935,310.9428 L1234.5601,310.9503 L1234.5270,310.9582 L1234.4939,310.9668 L1234.4610,310.9760 L1234.4283,310.9857 L1234.3958,310.9960 L1234.3634,311.0068 L1234.3313,311.0182 L1234.2993,311.0302 L1234.2676,311.0428 L1234.2361,311.0559 L1234.2048,311.0695 L1234.1737,311.0837 L1234.1430,311.0984 L1234.1124,311.1137 L1234.0822,311.1295 L1234.0522,311.1458 L1234.0225,311.1627 L1233.9932,311.1800 L1233.9641,311.1979 L1233.9353,311.2163 L1233.9069,311.2352 L1233.8788,311.2546 L1233.8511,311.2744 L1233.8237,311.2948 L1233.7966,311.3156 L1233.7700,311.3369 L1233.7437,311.3587 L1233.7178,311.3809 L1233.6922,311.4035 L1233.6671,311.4266 L1233.6424,311.4502 L1233.6181,311.4742 L1233.5943,311.4986 L1233.5708,311.5234 L1233.5478,311.5486 L1233.5253,311.5742 L1233.5032,311.6002 L1233.4815,311.6266 L1233.4603,311.6533 L1233.4396,311.6805 L1233.4194,311.7080 L1233.3997,311.7358 L1233.3804,311.7640 L1233.3617,311.7925 L1233.3434,311.8213 L1233.3256,311.8505 L1233.3084,311.8799 L1233.2917,311.9097 L1233.2755,311.9397 L1233.2598,311.9700 L1233.2447,312.0006 L1233.2301,312.0315 L1233.2161,312.0626 L1233.2025,312.0939 L1233.1896,312.1255 L1233.1772,312.1573 L1233.1653,312.1893 L1233.1541,312.2215 L1233.1433,312.2539 L1233.1332,312.2865 L1233.1236,312.3193 L1233.1146,312.3522 L1233.1062,312.3852 L1233.0983,312.4185 L1233.0911,312.4518 L1233.0844,312.4853 L1233.0783,312.5189 L1233.0728,312.5525 L1233.0679,312.5863 L1233.0636,312.6202 L1233.0599,312.6541 L1233.0567,312.6881 L1233.0542,312.7221 L1233.0523,312.7562 L1233.0509,312.7903 L1233.0502,312.8244 L1233.0500,312.8585 L1233.0505,312.8927 L1233.0515,312.9268 L1233.0532,312.9609 L1233.0554,312.9949 L1233.0582,313.0289 L1233.0617,313.0629 L1233.0657,313.0968 L1233.0703,313.1306 L1233.0755,313.1643 L1233.0813,313.1979 L1233.0877,313.2315 L1233.0946,313.2649 L1233.1022,313.2982 L1233.1103,313.3313 L1233.1190,313.3643 L1233.1283,313.3971 L1233.1382,313.4298 L1233.1486,313.4623 L1233.1596,313.4946 L1233.1712,313.5267 L1233.1833,313.5586 L1233.1960,313.5903 L1233.2092,313.6218 L1233.2230,313.6530 L1233.2373,313.6840 L1233.2522,313.7147 L1233.2676,313.7451 L1233.2835,313.7753 L1233.3000,313.8052 L1233.3170,313.8348 L1233.3345,313.8641 L1233.3525,313.8931 L1233.3710,313.9218 L1233.3900,313.9502 L1233.4095,313.9782 L1233.4295,314.0058 L1233.4499,314.0331 L1233.4709,314.0601 L1233.4923,314.0867 L1233.5142,314.1129 L1233.5365,314.1387 L1233.5593,314.1641 L1233.5825,314.1891 L1233.6061,314.2137 L1233.6302,314.2379 L1233.6547,314.2616 L1233.6796,314.2850 L1233.7049,314.3079 L1233.7307,314.3303 L1233.7568,314.3523 L1233.7832,314.3738 L1233.8101,314.3949 L1233.8373,314.4155 L1233.8649,314.4356 L1233.8928,314.4552 L1233.9211,314.4743 L1233.9497,314.4930 L1233.9786,314.5111 L1234.0078,314.5287 L1234.0373,314.5458 L1234.0672,314.5624 L1234.0973,314.5785 L1234.1277,314.5940 L1234.1583,314.6090 L1234.1892,314.6235 L1234.2204,314.6374 L1234.2518,314.6507 L1234.2834,314.6636 L1234.3153,314.6758 L1234.3473,314.6875 L1234.3796,314.6987 L1234.4120,314.7092 L1234.4447,314.7193 L1234.4775,314.7287 L1234.5104,314.7375 L1234.5435,314.7458 L1234.5768,314.7535 L1234.6102,314.7606 L1234.6437,314.7672 L1234.6773,314.7731 L1234.7110,314.7785 L1234.7448,314.7832 L1234.7786,314.7874 L1234.8126,314.7910 L1234.8466,314.7940 L1234.8806,314.7963 L1234.9147,314.7981 L1234.9488,314.7993 L1234.9829,314.7999 L1235.0171,314.7999 L1235.0512,314.7993 L1235.0853,314.7981 L1235.1194,314.7963 L1235.1534,314.7940 L1235.1874,314.7910 L1235.2214,314.7874 L1235.2552,314.7832 L1235.2890,314.7785 L1235.3227,314.7731 L1235.3563,314.7672 L1235.3898,314.7606 L1235.4232,314.7535 L1235.4565,314.7458 L1235.4896,314.7375 L1235.5225,314.7287 L1235.5553,314.7193 L1235.5880,314.7092 L1235.6204,314.6987 L1235.6527,314.6875 L1235.6847,314.6758 L1235.7166,314.6636 L1235.7482,314.6507 L1235.7796,314.6374 L1235.8108,314.6235 L1235.8417,314.6090 L1235.8723,314.5940 L1235.9027,314.5785 L1235.9328,314.5624 L1235.9627,314.5458 L1235.9922,314.5287 L1236.0214,314.5111 L1236.0503,314.4930 L1236.0789,314.4743 L1236.1072,314.4552 L1236.1351,314.4356 L1236.1627,314.4155 L1236.1899,314.3949 L1236.2168,314.3738 L1236.2432,314.3523 L1236.2693,314.3303 L1236.2951,314.3079 L1236.3204,314.2850 L1236.3453,314.2616 L1236.3698,314.2379 L1236.3939,314.2137 L1236.4175,314.1891 L1236.4407,314.1641 L1236.4635,314.1387 L1236.4858,314.1129 L1236.5077,314.0867 L1236.5291,314.0601 L1236.5501,314.0331 L1236.5705,314.0058 L1236.5905,313.9782 L1236.6100,313.9502 L1236.6290,313.9218 L1236.6475,313.8931 L1236.6655,313.8641 L1236.6830,313.8348 L1236.7000,313.8052 L1236.7165,313.7753 L1236.7324,313.7451 L1236.7478,313.7147 L1236.7627,313.6840 L1236.7770,313.6530 L1236.7908,313.6218 L1236.8040,313.5903 L1236.8167,313.5586 L1236.8288,313.5267 L1236.8404,313.4946 L1236.8514,313.4623 L1236.8618,313.4298 L1236.8717,313.3971 L1236.8810,313.3643 L1236.8897,313.3313 L1236.8978,313.2982 L1236.9054,313.2649 L1236.9123,313.2315 L1236.9187,313.1979 L1236.9245,313.1643 L1236.9297,313.1306 L1236.9343,313.0968 L1236.9383,313.0629 L1236.9418,313.0289 L1236.9446,312.9949 L1236.9468,312.9609 L1236.9485,312.9268 L1236.9495,312.8927 L1236.9500,312.8585 L1236.9498,312.8244 L1236.9491,312.7903 L1236.9477,312.7562 L1236.9458,312.7221 L1236.9433,312.6881 L1236.9401,312.6541 L1236.9364,312.6202 L1236.9321,312.5863 L1236.9272,312.5525 L1236.9217,312.5189 L1236.9156,312.4853 L1236.9089,312.4518 L1236.9017,312.4185 L1236.8938,312.3852 L1236.8854,312.3522 L1236.8764,312.3193 L1236.8668,312.2865 L1236.8567,312.2539 L1236.8459,312.2215 L1236.8347,312.1893 L1236.8228,312.1573 L1236.8104,312.1255 L1236.7975,312.0939 L1236.7839,312.0626 L1236.7699,312.0315 L1236.7553,312.0006 L1236.7402,311.9700 L1236.7245,311.9397 L1236.7083,311.9097 L1236.6916,311.8799 L1236.6744,311.8505 L1236.6566,311.8213 L1236.6383,311.7925 L1236.6196,311.7640 L1236.6003,311.7358 L1236.5806,311.7080 L1236.5604,311.6805 L1236.5397,311.6533 L1236.5185,311.6266 L1236.4968,311.6002 L1236.4747,311.5742 L1236.4522,311.5486 L1236.4292,311.5234 L1236.4057,311.4986 L1236.3819,311.4742 L1236.3576,311.4502 L1236.3329,311.4266 L1236.3078,311.4035 L1236.2822,311.3809 L1236.2563,311.3587 L1236.2300,311.3369 L1236.2034,311.3156 L1236.1763,311.2948 L1236.1489,311.2744 L1236.1212,311.2546 L1236.0931,311.2352 L1236.0647,311.2163 L1236.0359,311.1979 L1236.0068,311.1800 L1235.9775,311.1627 L1235.9478,311.1458 L1235.9178,311.1295 L1235.8876,311.1137 L1235.8570,311.0984 L1235.8263,311.0837 L1235.7952,311.0695 L1235.7639,311.0559 L1235.7324,311.0428 L1235.7007,311.0302 L1235.6687,311.0182 L1235.6366,311.0068 L1235.6042,310.9960 L1235.5717,310.9857 L1235.5390,310.9760 L1235.5061,310.9668 L1235.4730,310.9582 L1235.4399,310.9503 L1235.4065,310.9428 L1235.3731,310.9360 L1235.3395,310.9298 L1235.3059,310.9241 L1235.2721,310.9191 L1235.2383,310.9146 L1235.2044,310.9107 L1235.1704,310.9075 L1235.1364,310.9048 L1235.1023,310.9027 L1235.0682,310.9012 L1235.0341,310.9003 L1235.0000,310.9000"></path>
	<path d="M1215.0000,290.9000 L1214.9659,290.9003 L1214.9318,290.9012 L1214.8977,290.9027 L1214.8636,290.9048 L1214.8296,290.9075 L1214.7956,290.9107 L1214.7617,290.9146 L1214.7279,290.9191 L1214.6941,290.9241 L1214.6605,290.9298 L1214.6269,290.9360 L1214.5935,290.9428 L1214.5601,290.9503 L1214.5270,290.9582 L1214.4939,290.9668 L1214.4610,290.9760 L1214.4283,290.9857 L1214.3958,290.9960 L1214.3634,291.0068 L1214.3313,291.0182 L1214.2993,291.0302 L1214.2676,291.0428 L1214.2361,291.0559 L1214.2048,291.0695 L1214.1737,291.0837 L1214.1430,291.0984 L1214.1124,291.1137 L1214.0822,291.1295 L1214.0522,291.1458 L1214.0225,291.1627 L1213.9932,291.1800 L1213.9641,291.1979 L1213.9353,291.2163 L1213.9069,291.2352 L1213.8788,291.2546 L1213.8511,291.2744 L1213.8237,291.2948 L1213.7966,291.3156 L1213.7700,291.3369 L1213.7437,291.3587 L1213.7178,291.3809 L1213.6922,291.4035 L1213.6671,291.4266 L1213.6424,291.4502 L1213.6181,291.4742 L1213.5943,291.4986 L1213.5708,291.5234 L1213.5478,291.5486 L1213.5253,291.5742 L1213.5032,291.6002 L1213.4815,291.6266 L1213.4603,291.6533 L1213.4396,291.6805 L1213.4194,291.7080 L1213.3997,291.7358 L1213.3804,291.7640 L1213.3617,291.7925 L1213.3434,291.8213 L1213.3256,291.8505 L1213.3084,291.8799 L1213.2917,291.9097 L1213.2755,291.9397 L1213.2598,291.9700 L1213.2447,292.0006 L1213.2301,292.0315 L1213.2161,292.0626 L1213.2025,292.0939 L1213.1896,292.1255 L1213.1772,292.1573 L1213.1653,292.1893 L1213.1541,292.2215 L1213.1433,292.2539 L1213.1332,292.2865 L1213.1236,292.3193 L1213.1146,292.3522 L1213.1062,292.3852 L1213.0983,292.4185 L1213.0911,292.4518 L1213.0844,292.4853 L1213.0783,292.5189 L1213.0728,292.5525 L1213.0679,292.5863 L1213.0636,292.6202 L1213.0599,292.6541 L1213.0567,292.6881 L1213.0542,292.7221 L1213.0523,292.7562 L1213.0509,292.7903 L1213.0502,292.8244 L1213.0500,292.8585 L1213.0505,292.8927 L1213.0515,292.9268 L1213.0532,292.9609 L1213.0554,292.9949 L1213.0582,293.0289 L1213.0617,293.0629 L1213.0657,293.0968 L1213.0703,293.1306 L1213.0755,293.1643 L1213.0813,293.1979 L1213.0877,293.2315 L1213.0946,293.2649 L1213.1022,293.2982 L1213.1103,293.3313 L1213.1190,293.3643 L1213.1283,293.3971 L1213.1382,293.4298 L1213.1486,293.4623 L1213.1596,293.4946 L1213.1712,293.5267 L1213.1833,293.5586 L1213.1960,293.5903 L1213.2092,293.6218 L1213.2230,293.6530 L1213.2373,293.6840 L1213.2522,293.7147 L1213.2676,293.7451 L1213.2835,293.7753 L1213.3000,293.8052 L1213.3170,293.8348 L1213.3345,293.8641 L1213.3525,293.8931 L1213.3710,293.9218 L1213.3900,293.9502 L1213.4095,293.9782 L1213.4295,294.0058 L1213.4499,294.0331 L1213.4709,294.0601 L1213.4923,294.0867 L1213.5142,294.1129 L1213.5365,294.1387 L1213.5593,294.1641 L1213.5825,294.1891 L1213.6061,294.2137 L1213.6302,294.2379 L1213.6547,294.2616 L1213.6796,294.2850 L1213.7049,294.3079 L1213.7307,294.3303 L1213.7568,294.3523 L1213.7832,294.3738 L1213.8101,294.3949 L1213.8373,294.4155 L1213.8649,294.4356 L1213.8928,294.4552 L1213.9211,294.4743 L1213.9497,294.4930 L1213.9786,294.5111 L1214.0078,294.5287 L1214.0373,294.5458 L1214.0672,294.5624 L1214.0973,294.5785 L1214.1277,294.5940 L1214.1583,294.6090 L1214.1892,294.6235 L1214.2204,294.6374 L1214.2518,294.6507 L1214.2834,294.6636 L1214.3153,294.6758 L1214.3473,294.6875 L1214.3796,294.6987 L1214.4120,294.7092 L1214.4447,294.7193 L1214.4775,294.7287 L1214.5104,294.7375 L1214.5435,294.7458 L1214.5768,294.7535 L1214.6102,294.7606 L1214.6437,294.7672 L1214.6773,294.7731 L1214.7110,294.7785 L1214.7448,294.7832 L1214.7786,294.7874 L1214.8126,294.7910 L1214.8466,294.7940 L1214.8806,294.7963 L1214.9147,294.7981 L1214.9488,294.7993 L1214.9829,294.7999 L1215.0171,294.7999 L1215.0512,294.7993 L1215.0853,294.7981 L1215.1194,294.7963 L1215.1534,294.7940 L1215.1874,294.7910 L1215.2214,294.7874 L1215.2552,294.7832 L1215.2890,294.7785 L1215.3227,294.7731 L1215.3563,294.7672 L1215.3898,294.7606 L1215.4232,294.7535 L1215.4565,294.7458 L1215.4896,294.7375 L1215.5225,294.7287 L1215.5553,294.7193 L1215.5880,294.7092 L1215.6204,294.6987 L1215.6527,294.6875 L1215.6847,294.6758 L1215.7166,294.6636 L1215.7482,294.6507 L1215.7796,294.6374 L1215.8108,294.6235 L1215.8417,294.6090 L1215.8723,294.5940 L1215.9027,294.5785 L1215.9328,294.5624 L1215.9627,294.5458 L1215.9922,294.5287 L1216.0214,294.5111 L1216.0503,294.4930 L1216.0789,294.4743 L1216.1072,294.4552 L1216.1351,294.4356 L1216.1627,294.4155 L1216.1899,294.3949 L1216.2168,294.3738 L1216.2432,294.3523 L1216.2693,294.3303 L1216.2951,294.3079 L1216.3204,294.2850 L1216.3453,294.2616 L1216.3698,294.2379 L1216.3939,294.2137 L1216.4175,294.1891 L1216.4407,294.1641 L1216.4635,294.1387 L1216.4858,294.1129 L1216.5077,294.0867 L1216.5291,294.0601 L1216.5501,294.0331 L1216.5705,294.0058 L1216.5905,293.9782 L1216.6100,293.9502 L1216.6290,293.9218 L1216.6475,293.8931 L1216.6655,293.8641 L1216.6830,293.8348 L1216.7000,293.8052 L1216.7165,293.7753 L1216.7324,293.7451 L1216.7478,293.7147 L1216.7627,293.6840 L1216.7770,293.6530 L1216.7908,293.6218 L1216.8040,293.5903 L1216.8167,293.5586 L1216.8288,293.5267 L1216.8404,293.4946 L1216.8514,293.4623 L1216.8618,293.4298 L1216.8717,293.3971 L1216.8810,293.3643 L1216.8897,293.3313 L1216.8978,293.2982 L1216.9054,293.2649 L1216.9123,293.2315 L1216.9187,293.1979 L1216.9245,293.1643 L1216.9297,293.1306 L1216.9343,293.0968 L1216.9383,293.0629 L1216.9418,293.0289 L1216.9446,292.9949 L1216.9468,292.9609 L1216.9485,292.9268 L1216.9495,292.8927 L1216.9500,292.8585 L1216.9498,292.8244 L1216.9491,292.7903 L1216.9477,292.7562 L1216.9458,292.7221 L1216.9433,292.6881 L1216.9401,292.6541 L1216.9364,292.6202 L1216.9321,292.5863 L1216.9272,292.5525 L1216.9217,292.5189 L1216.9156,292.4853 L1216.9089,292.4518 L1216.9017,292.4185 L1216.8938,292.3852 L1216.8854,292.3522 L1216.8764,292.3193 L1216.8668,292.2865 L1216.8567,292.2539 L1216.8459,292.2215 L1216.8347,292.1893 L1216.8228,292.1573 L1216.8104,292.1255 L1216.7975,292.0939 L1216.7839,292.0626 L1216.7699,292.0315 L1216.7553,292.0006 L1216.7402,291.9700 L1216.7245,291.9397 L1216.7083,291.9097 L1216.6916,291.8799 L1216.6744,291.8505 L1216.6566,291.8213 L1216.6383,291.7925 L1216.6196,291.7640 L1216.6003,291.7358 L1216.5806,291.7080 L1216.5604,291.6805 L1216.5397,291.6533 L1216.5185,291.6266 L1216.4968,291.6002 L1216.4747,291.5742 L1216.4522,291.5486 L1216.4292,291.5234 L1216.4057,291.4986 L1216.3819,291.4742 L1216.3576,291.4502 L1216.3329,291.4266 L1216.3078,291.4035 L1216.2822,291.3809 L1216.2563,291.3587 L1216.2300,291.3369 L1216.2034,291.3156 L1216.1763,291.2948 L1216.1489,291.2744 L1216.1212,291.2546 L1216.0931,291.2352 L1216.0647,291.2163 L1216.0359,291.1979 L1216.0068,291.1800 L1215.9775,291.1627 L1215.9478,291.1458 L1215.9178,291.1295 L1215.8876,291.1137 L1215.8570,291.0984 L1215.8263,291.0837 L1215.7952,291.0695 L1215.7639,291.0559 L1215.7324,291.0428 L1215.7007,291.0302 L1215.6687,291.0182 L1215.6366,291.0068 L1215.6042,290.9960 L1215.5717,290.9857 L1215.5390,290.9760 L1215.5061,290.9668 L1215.4730,290.9582 L1215.4399,290.9503 L1215.4065,290.9428 L1215.3731,290.9360 L1215.3395,290.9298 L1215.3059,290.9241 L1215.2721,290.9191 L1215.2383,290.9146 L1215.2044,290.9107 L1215.1704,290.9075 L1215.1364,290.9048 L1215.1023,290.9027 L1215.0682,290.9012 L1215.0341,290.9003 L1215.0000,290.9000"></path>
	<path d="M1235.0000,290.9000 L1234.9659,290.9003 L1234.9318,290.9012 L1234.8977,290.9027 L1234.8636,290.9048 L1234.8296,290.9075 L1234.7956,290.9107 L1234.7617,290.9146 L1234.7279,290.9191 L1234.6941,290.9241 L1234.6605,290.9298 L1234.6269,290.9360 L1234.5935,290.9428 L1234.5601,290.9503 L1234.5270,290.9582 L1234.4939,290.9668 L1234.4610,290.9760 L1234.4283,290.9857 L1234.3958,290.9960 L1234.3634,291.0068 L1234.3313,291.0182 L1234.2993,291.0302 L1234.2676,291.0428 L1234.2361,291.0559 L1234.2048,291.0695 L1234.1737,291.0837 L1234.1430,291.0984 L1234.1124,291.1137 L1234.0822,291.1295 L1234.0522,291.1458 L1234.0225,291.1627 L1233.9932,291.1800 L1233.9641,291.1979 L1233.9353,291.2163 L1233.9069,291.2352 L1233.8788,291.2546 L1233.8511,291.2744 L1233.8237,291.2948 L1233.7966,291.3156 L1233.7700,291.3369 L1233.7437,291.3587 L1233.7178,291.3809 L1233.6922,291.4035 L1233.6671,291.4266 L1233.6424,291.4502 L1233.6181,291.4742 L1233.5943,291.4986 L1233.5708,291.5234 L1233.5478,291.5486 L1233.5253,291.5742 L1233.5032,291.6002 L1233.4815,291.6266 L1233.4603,291.6533 L1233.4396,291.6805 L1233.4194,291.7080 L1233.3997,291.7358 L1233.3804,291.7640 L1233.3617,291.7925 L1233.3434,291.8213 L1233.3256,291.8505 L1233.3084,291.8799 L1233.2917,291.9097 L1233.2755,291.9397 L1233.2598,291.9700 L1233.2447,292.0006 L1233.2301,292.0315 L1233.2161,292.0626 L1233.2025,292.0939 L1233.1896,292.1255 L1233.1772,292.1573 L1233.1653,292.1893 L1233.1541,292.2215 L1233.1433,292.2539 L1233.1332,292.2865 L1233.1236,292.3193 L1233.1146,292.3522 L1233.1062,292.3852 L1233.0983,292.4185 L1233.0911,292.4518 L1233.0844,292.4853 L1233.0783,292.5189 L1233.0728,292.5525 L1233.0679,292.5863 L1233.0636,292.6202 L1233.0599,292.6541 L1233.0567,292.6881 L1233.0542,292.7221 L1233.0523,292.7562 L1233.0509,292.7903 L1233.0502,292.8244 L1233.0500,292.8585 L1233.0505,292.8927 L1233.0515,292.9268 L1233.0532,292.9609 L1233.0554,292.9949 L1233.0582,293.0289 L1233.0617,293.0629 L1233.0657,293.0968 L1233.0703,293.1306 L1233.0755,293.1643 L1233.0813,293.1979 L1233.0877,293.2315 L1233.0946,293.2649 L1233.1022,293.2982 L1233.1103,293.3313 L1233.1190,293.3643 L1233.1283,293.3971 L1233.1382,293.4298 L1233.1486,293.4623 L1233.1596,293.4946 L1233.1712,293.5267 L1233.1833,293.5586 L1233.1960,293.5903 L1233.2092,293.6218 L1233.2230,293.6530 L1233.2373,293.6840 L1233.2522,293.7147 L1233.2676,293.7451 L1233.2835,293.7753 L1233.3000,293.8052 L1233.3170,293.8348 L1233.3345,293.8641 L1233.3525,293.8931 L1233.3710,293.9218 L1233.3900,293.9502 L1233.4095,293.9782 L1233.4295,294.0058 L1233.4499,294.0331 L1233.4709,294.0601 L1233.4923,294.0867 L1233.5142,294.1129 L1233.5365,294.1387 L1233.5593,294.1641 L1233.5825,294.1891 L1233.6061,294.2137 L1233.6302,294.2379 L1233.6547,294.2616 L1233.6796,294.2850 L1233.7049,294.3079 L1233.7307,294.3303 L1233.7568,294.3523 L1233.7832,294.3738 L1233.8101,294.3949 L1233.8373,294.4155 L1233.8649,294.4356 L1233.8928,294.4552 L1233.9211,294.4743 L1233.9497,294.4930 L1233.9786,294.5111 L1234.0078,294.5287 L1234.0373,294.5458 L1234.0672,294.5624 L1234.0973,294.5785 L1234.1277,294.5940 L1234.1583,294.6090 L1234.1892,294.6235 L1234.2204,294.6374 L1234.2518,294.6507 L1234.2834,294.6636 L1234.3153,294.6758 L1234.3473,294.6875 L1234.3796,294.6987 L1234.4120,294.7092 L1234.4447,294.7193 L1234.4775,294.7287 L1234.5104,294.7375 L1234.5435,294.7458 L1234.5768,294.7535 L1234.6102,294.7606 L1234.6437,294.7672 L1234.6773,294.7731 L1234.7110,294.7785 L1234.7448,294.7832 L1234.7786,294.7874 L1234.8126,294.7910 L1234.8466,294.7940 L1234.8806,294.7963 L1234.9147,294.7981 L1234.9488,294.7993 L1234.9829,294.7999 L1235.0171,294.7999 L1235.0512,294.7993 L1235.0853,294.7981 L1235.1194,294.7963 L1235.1534,294.7940 L1235.1874,294.7910 L1235.2214,294.7874 L1235.2552,294.7832 L1235.2890,294.7785 L1235.3227,294.7731 L1235.3563,294.7672 L1235.3898,294.7606 L1235.4232,294.7535 L1235.4565,294.7458 L1235.4896,294.7375 L1235.5225,294.7287 L1235.5553,294.7193 L1235.5880,294.7092 L1235.6204,294.6987 L1235.6527,294.6875 L1235.6847,294.6758 L1235.7166,294.6636 L1235.7482,294.6507 L1235.7796,294.6374 L1235.8108,294.6235 L1235.8417,294.6090 L1235.8723,294.5940 L1235.9027,294.5785 L1235.9328,294.5624 L1235.9627,294.5458 L1235.9922,294.5287 L1236.0214,294.5111 L1236.0503,294.4930 L1236.0789,294.4743 L1236.1072,294.4552 L1236.1351,294.4356 L1236.1627,294.4155 L1236.1899,294.3949 L1236.2168,294.3738 L1236.2432,294.3523 L1236.2693,294.3303 L1236.2951,294.3079 L1236.3204,294.2850 L1236.3453,294.2616 L1236.3698,294.2379 L1236.3939,294.2137 L1236.4175,294.1891 L1236.4407,294.1641 L1236.4635,294.1387 L1236.4858,294.1129 L1236.5077,294.0867 L1236.5291,294.0601 L1236.5501,294.0331 L1236.5705,294.0058 L1236.5905,293.9782 L1236.6100,293.9502 L1236.6290,293.9218 L1236.6475,293.8931 L1236.6655,293.8641 L1236.6830,293.8348 L1236.7000,293.8052 L1236.7165,293.7753 L1236.7324,293.7451 L1236.7478,293.7147 L1236.7627,293.6840 L1236.7770,293.6530 L1236.7908,293.6218 L1236.8040,293.5903 L1236.8167,293.5586 L1236.8288,293.5267 L1236.8404,293.4946 L1236.8514,293.4623 L1236.8618,293.4298 L1236.8717,293.3971 L1236.8810,293.3643 L1236.8897,293.3313 L1236.8978,293.2982 L1236.9054,293.2649 L1236.9123,293.2315 L1236.9187,293.1979 L1236.9245,293.1643 L1236.9297,293.1306 L1236.9343,293.0968 L1236.9383,293.0629 L1236.9418,293.0289 L1236.9446,292.9949 L1236.9468,292.9609 L1236.9485,292.9268 L1236.9495,292.8927 L1236.9500,292.8585 L1236.9498,292.8244 L1236.9491,292.7903 L1236.9477,292.7562 L1236.9458,292.7221 L1236.9433,292.6881 L1236.9401,292.6541 L1236.9364,292.6202 L1236.9321,292.5863 L1236.9272,292.5525 L1236.9217,292.5189 L1236.9156,292.4853 L1236.9089,292.4518 L1236.9017,292.4185 L1236.8938,292.3852 L1236.8854,292.3522 L1236.8764,292.3193 L1236.8668,292.2865 L1236.8567,292.2539 L1236.8459,292.2215 L1236.8347,292.1893 L1236.8228,292.1573 L1236.8104,292.1255 L1236.7975,292.0939 L1236.7839,292.0626 L1236.7699,292.0315 L1236.7553,292.0006 L1236.7402,291.9700 L1236.7245,291.9397 L1236.7083,291.9097 L1236.6916,291.8799 L1236.6744,291.8505 L1236.6566,291.8213 L1236.6383,291.7925 L1236.6196,291.7640 L1236.6003,291.7358 L1236.5806,291.7080 L1236.5604,291.6805 L1236.5397,291.6533 L1236.5185,291.6266 L1236.4968,291.6002 L1236.4747,291.5742 L1236.4522,291.5486 L1236.4292,291.5234 L1236.4057,291.4986 L1236.3819,291.4742 L1236.3576,291.4502 L1236.3329,291.4266 L1236.3078,291.4035 L1236.2822,291.3809 L1236.2563,291.3587 L1236.2300,291.3369 L1236.2034,291.3156 L1236.1763,291.2948 L1236.1489,291.2744 L1236.1212,291.2546 L1236.0931,291.2352 L1236.0647,291.2163 L1236.0359,291.1979 L1236.0068,291.1800 L1235.9775,291.1627 L1235.9478,291.1458 L1235.9178,291.1295 L1235.8876,291.1137 L1235.8570,291.0984 L1235.8263,291.0837 L1235.7952,291.0695 L1235.7639,291.0559 L1235.7324,291.0428 L1235.7007,291.0302 L1235.6687,291.0182 L1235.6366,291.0068 L1235.6042,290.9960 L1235.5717,290.9857 L1235.5390,290.9760 L1235.5061,290.9668 L1235.4730,290.9582 L1235.4399,290.9503 L1235.4065,290.9428 L1235.3731,290.9360 L1235.3395,290.9298 L1235.3059,290.9241 L1235.2721,290.9191 L1235.2383,290.9146 L1235.2044,290.9107 L1235.1704,290.9075 L1235.1364,290.9048 L1235.1023,290.9027 L1235.0682,290.9012 L1235.0341,290.9003 L1235.0000,290.9000"></path>
</g>
</svg>