<?xml version="1.0" encoding="utf-8"?>
<svg xmlns="http://www.w3.org/2000/svg" width="68.8000mm" height="150.0000mm" viewBox="673.8000 0.0000 68.8000 150.0000">
<g>
	<path d="M685.7000,0.0000 L685.7000,83.3333 L679.7500,83.3333 L679.7500,77.3833 L673.8000,77.3833 L673.8000,150.0000 L742.6000,150.0000 L742.6000,77.3833 L736.6500,77.3833 L736.6500,83.3333 L730.7000,83.3333 L730.7000,0.0000 L685.7000,0.0000"></path>
	<path d="M708.2000,19.9500 L707.9804,19.9519 L707.7608,19.9577 L707.5414,19.9673 L707.3221,19.9807 L707.1032,19.9980 L706.8845,20.0191 L706.6663,20.0441 L706.4485,20.0728 L706.2313,20.1054 L706.0147,20.1417 L705.7988,20.1819 L705.5835,20.2258 L705.3691,20.2734 L705.1556,20.3249 L704.9430,20.3800 L704.7314,20.4389 L704.5208,20.5014 L704.3114,20.5676 L704.1032,20.6375 L703.8962,20.7110 L703.6905,20.7882 L703.4862,20.8689 L703.2834,20.9532 L703.0821,21.0410 L702.8823,21.1323 L702.6842,21.2271 L702.4877,21.3254 L702.2931,21.4270 L702.1002,21.5321 L701.9092,21.6405 L701.7201,21.7523 L701.5330,21.8674 L701.3479,21.9857 L701.1649,22.1072 L700.9841,22.2319 L700.8055,22.3598 L700.6292,22.4907 L700.4552,22.6248 L700.2836,22.7618 L700.1143,22.9018 L699.9476,23.0448 L699.7834,23.1907 L699.6218,23.3394 L699.4627,23.4910 L699.3064,23.6452 L699.1528,23.8022 L699.0020,23.9619 L698.8540,24.1242 L698.7088,24.2890 L698.5666,24.4564 L698.4273,24.6262 L698.2910,24.7985 L698.1577,24.9731 L698.0275,25.1500 L697.9004,25.3291 L697.7765,25.5105 L697.6558,25.6940 L697.5383,25.8796 L697.4241,26.0672 L697.3131,26.2567 L697.2055,26.4482 L697.1013,26.6416 L697.0005,26.8367 L696.9031,27.0336 L696.8091,27.2321 L696.7187,27.4323 L696.6318,27.6340 L696.5484,27.8372 L696.4685,28.0418 L696.3923,28.2478 L696.3197,28.4551 L696.2507,28.6636 L696.1854,28.8734 L696.1238,29.0842 L696.0659,29.2960 L696.0117,29.5089 L695.9612,29.7227 L695.9144,29.9373 L695.8715,30.1527 L695.8323,30.3688 L695.7969,30.5856 L695.7653,30.8029 L695.7375,31.0208 L695.7135,31.2391 L695.6933,31.4579 L695.6770,31.6769 L695.6645,31.8962 L695.6559,32.1157 L695.6511,32.3353 L695.6501,32.5549 L695.6530,32.7745 L695.6597,32.9941 L695.6703,33.2135 L695.6847,33.4326 L695.7029,33.6515 L695.7250,33.8701 L695.7509,34.0882 L695.7806,34.3058 L695.8141,34.5229 L695.8514,34.7393 L695.8925,34.9551 L695.9373,35.1701 L695.9859,35.3843 L696.0383,35.5977 L696.0944,35.8100 L696.1542,36.0214 L696.2176,36.2316 L696.2848,36.4408 L696.3556,36.6487 L696.4300,36.8554 L696.5080,37.0607 L696.5896,37.2646 L696.6748,37.4671 L696.7635,37.6680 L696.8557,37.8674 L696.9513,38.0651 L697.0505,38.2611 L697.1530,38.4553 L697.2589,38.6478 L697.3682,38.8383 L697.4808,39.0269 L697.5966,39.2135 L697.7157,39.3980 L697.8381,39.5805 L697.9636,39.7607 L698.0922,39.9388 L698.2239,40.1145 L698.3587,40.2879 L698.4965,40.4590 L698.6373,40.6276 L698.7810,40.7937 L698.9276,40.9573 L699.0770,41.1182 L699.2293,41.2766 L699.3842,41.4322 L699.5419,41.5852 L699.7022,41.7353 L699.8652,41.8826 L700.0307,42.0270 L700.1986,42.1685 L700.3691,42.3071 L700.5419,42.4426 L700.7171,42.5751 L700.8946,42.7046 L701.0743,42.8308 L701.2562,42.9540 L701.4402,43.0739 L701.6263,43.1906 L701.8144,43.3040 L702.0044,43.4141 L702.1964,43.5208 L702.3902,43.6242 L702.5858,43.7242 L702.7830,43.8207 L702.9820,43.9138 L703.1826,44.0034 L703.3846,44.0894 L703.5882,44.1719 L703.7932,44.2508 L703.9995,44.3262 L704.2071,44.3979 L704.4160,44.4659 L704.6260,44.5303 L704.8370,44.5910 L705.0492,44.6480 L705.2623,44.7013 L705.4762,44.7509 L705.6911,44.7967 L705.9066,44.8387 L706.1229,44.8769 L706.3399,44.9114 L706.5574,44.9420 L706.7754,44.9689 L706.9938,44.9919 L707.2126,45.0111 L707.4317,45.0265 L707.6511,45.0380 L707.8706,45.0457 L708.0902,45.0495 L708.3098,45.0495 L708.5294,45.0457 L708.7489,45.0380 L708.9683,45.0265 L709.1874,45.0111 L709.4062,44.9919 L709.6246,44.9689 L709.8426,44.9420 L710.0601,44.9114 L710.2771,44.8769 L710.4934,44.8387 L710.7089,44.7967 L710.9238,44.7509 L711.1377,44.7013 L711.3508,44.6480 L711.5630,44.5910 L711.7740,44.5303 L711.9840,44.4659 L712.1929,44.3979 L712.4005,44.3262 L712.6068,44.2508 L712.8118,44.1719 L713.0154,44.0894 L713.2174,44.0034 L713.4180,43.9138 L713.6170,43.8207 L713.8142,43.7242 L714.0098,43.6242 L714.2036,43.5208 L714.3956,43.4141 L714.5856,43.3040 L714.7737,43.1906 L714.9598,43.0739 L715.1438,42.9540 L715.3257,42.8308 L715.5054,42.7046 L715.6829,42.5751 L715.8581,42.4426 L716.0309,42.3071 L716.2014,42.1685 L716.3693,42.0270 L716.5348,41.8826 L716.6978,41.7353 L716.8581,41.5852 L717.0158,41.4322 L717.1707,41.2766 L717.3230,41.1182 L717.4724,40.9573 L717.6190,40.7937 L717.7627,40.6276 L717.9035,40.4590 L718.0413,40.2879 L718.1761,40.1145 L718.3078,39.9388 L718.4364,39.7607 L718.5619,39.5805 L718.6843,39.3980 L718.8034,39.2135 L718.9192,39.0269 L719.0318,38.8383 L719.1411,38.6478 L719.2470,38.4553 L719.3495,38.2611 L719.4487,38.0651 L719.5443,37.8674 L719.6365,37.6680 L719.7252,37.4671 L719.8104,37.2646 L719.8920,37.0607 L719.9700,36.8554 L720.0444,36.6487 L720.1152,36.4408 L720.1824,36.2316 L720.2458,36.0214 L720.3056,35.8100 L720.3617,35.5977 L720.4141,35.3843 L720.4627,35.1701 L720.5075,34.9551 L720.5486,34.7393 L720.5859,34.5229 L720.6194,34.3058 L720.6491,34.0882 L720.6750,33.8701 L720.6971,33.6515 L720.7153,33.4326 L720.7297,33.2135 L720.7403,32.9941 L720.7470,32.7745 L720.7499,32.5549 L720.7489,32.3353 L720.7441,32.1157 L720.7355,31.8962 L720.7230,31.6769 L720.7067,31.4579 L720.6865,31.2391 L720.6625,31.0208 L720.6347,30.8029 L720.6031,30.5856 L720.5677,30.3688 L720.5285,30.1527 L720.4856,29.9373 L720.4388,29.7227 L720.3883,29.5089 L720.3341,29.2960 L720.2762,29.0842 L720.2146,28.8734 L720.1493,28.6636 L720.0803,28.4551 L720.0077,28.2478 L719.9315,28.0418 L719.8516,27.8372 L719.7682,27.6340 L719.6813,27.4323 L719.5909,27.2321 L719.4969,27.0336 L719.3995,26.8367 L719.2987,26.6416 L719.1945,26.4482 L719.0869,26.2567 L718.9759,26.0672 L718.8617,25.8796 L718.7442,25.6940 L718.6235,25.5105 L718.4996,25.3291 L718.3725,25.1500 L718.2423,24.9731 L718.1090,24.7985 L717.9727,24.6262 L717.8334,24.4564 L717.6912,24.2890 L717.5460,24.1242 L717.3980,23.9619 L717.2472,23.8022 L717.0936,23.6452 L716.9373,23.4910 L716.7782,23.3394 L716.6166,23.1907 L716.4524,23.0448 L716.2857,22.9018 L716.1164,22.7618 L715.9448,22.6248 L715.7708,22.4907 L715.5945,22.3598 L715.4159,22.2319 L715.2351,22.1072 L715.0521,21.9857 L714.8670,21.8674 L714.6799,21.7523 L714.4908,21.6405 L714.2998,21.5321 L714.1069,21.4270 L713.9123,21.3254 L713.7158,21.2271 L713.5177,21.1323 L713.3179,21.0410 L713.1166,20.9532 L712.9138,20.8689 L712.7095,20.7882 L712.5038,20.7110 L712.2968,20.6375 L712.0886,20.5676 L711.8792,20.5014 L711.6686,20.4389 L711.4570,20.3800 L711.2444,20.3249 L711.0309,20.2734 L710.8165,20.2258 L710.6012,20.1819 L710.3853,20.1417 L710.1687,20.1054 L709.9515,20.0728 L709.7337,20.0441 L709.5155,20.0191 L709.2968,19.9980 L709.0779,19.9807 L708.8586,19.9673 L708.6392,19.9577 L708.4196,19.9519 L708.2000,19.9500"></path>
</g>
</svg>